<svg version="1.1" viewBox="0.0 0.0 600.0 371.0" fill="none" stroke="none" stroke-linecap="square" stroke-miterlimit="10" width="600" height="371" xmlns:xlink="http://www.w3.org/1999/xlink" xmlns="http://www.w3.org/2000/svg"><path fill="#ffffff" d="M0 0L600.0 0L600.0 371.0L0 371.0L0 0Z" fill-rule="nonzero"/><path stroke="#333333" stroke-width="1.0" stroke-linecap="butt" d="M77.5 332.5L522.5 332.5" fill-rule="nonzero"/><path stroke="#cccccc" stroke-width="1.0" stroke-linecap="butt" d="M77.5 275.5L522.5 275.5" fill-rule="nonzero"/><path stroke="#cccccc" stroke-width="1.0" stroke-linecap="butt" d="M77.5 219.5L522.5 219.5" fill-rule="nonzero"/><path stroke="#cccccc" stroke-width="1.0" stroke-linecap="butt" d="M77.5 162.5L522.5 162.5" fill-rule="nonzero"/><path stroke="#cccccc" stroke-width="1.0" stroke-linecap="butt" d="M77.5 106.5L522.5 106.5" fill-rule="nonzero"/><path stroke="#cccccc" stroke-width="1.0" stroke-linecap="butt" d="M77.5 49.5L522.5 49.5" fill-rule="nonzero"/><clipPath id="id_0"><path d="M77.55 49.916668L522.45 49.916668L522.45 332.45L77.55 332.45L77.55 49.916668Z" clip-rule="nonzero"/></clipPath><path stroke="#000000" stroke-width="2.0" stroke-linecap="butt" stroke-opacity="0.0" clip-path="url(#id_0)" d="M166.0 332.0L125.0 332.0L125.0 52.0C125.0 50.89543 125.89543 50.0 127.0 50.0L164.0 50.0C165.10457 50.0 166.0 50.89543 166.0 52.0Z" fill-rule="nonzero"/><path fill="#205aff" clip-path="url(#id_0)" d="M166.0 332.0L125.0 332.0L125.0 52.0C125.0 50.89543 125.89543 50.0 127.0 50.0L164.0 50.0C165.10457 50.0 166.0 50.89543 166.0 52.0Z" fill-rule="nonzero"/><path stroke="#000000" stroke-width="2.0" stroke-linecap="butt" stroke-opacity="0.0" clip-path="url(#id_0)" d="M299.0 332.0L258.0 332.0L258.0 317.0C258.0 315.89542 258.89542 315.0 260.0 315.0L297.0 315.0C298.10458 315.0 299.0 315.89542 299.0 317.0Z" fill-rule="nonzero"/><path fill="#205aff" clip-path="url(#id_0)" d="M299.0 332.0L258.0 332.0L258.0 317.0C258.0 315.89542 258.89542 315.0 260.0 315.0L297.0 315.0C298.10458 315.0 299.0 315.89542 299.0 317.0Z" fill-rule="nonzero"/><path stroke="#000000" stroke-width="2.0" stroke-linecap="butt" stroke-opacity="0.0" clip-path="url(#id_0)" d="M432.0 332.0L391.0 332.0L391.0 330.0C391.0 328.89542 391.89542 328.0 393.0 328.0L430.0 328.0C431.10458 328.0 432.0 328.89542 432.0 330.0Z" fill-rule="nonzero"/><path fill="#205aff" clip-path="url(#id_0)" d="M432.0 332.0L391.0 332.0L391.0 330.0C391.0 328.89542 391.89542 328.0 393.0 328.0L430.0 328.0C431.10458 328.0 432.0 328.89542 432.0 330.0Z" fill-rule="nonzero"/><path stroke="#000000" stroke-width="2.0" stroke-linecap="butt" stroke-opacity="0.0" clip-path="url(#id_0)" d="M209.0 332.0L168.0 332.0L168.0 64.0C168.0 62.89543 168.89543 62.0 170.0 62.0L207.0 62.0C208.10457 62.0 209.0 62.89543 209.0 64.0Z" fill-rule="nonzero"/><path fill="#b7b7b7" clip-path="url(#id_0)" d="M209.0 332.0L168.0 332.0L168.0 64.0C168.0 62.89543 168.89543 62.0 170.0 62.0L207.0 62.0C208.10457 62.0 209.0 62.89543 209.0 64.0Z" fill-rule="nonzero"/><path stroke="#000000" stroke-width="2.0" stroke-linecap="butt" stroke-opacity="0.0" clip-path="url(#id_0)" d="M342.0 332.0L301.0 332.0L301.0 328.0C301.0 326.89542 301.89542 326.0 303.0 326.0L340.0 326.0C341.10458 326.0 342.0 326.89542 342.0 328.0Z" fill-rule="nonzero"/><path fill="#b7b7b7" clip-path="url(#id_0)" d="M342.0 332.0L301.0 332.0L301.0 328.0C301.0 326.89542 301.89542 326.0 303.0 326.0L340.0 326.0C341.10458 326.0 342.0 326.89542 342.0 328.0Z" fill-rule="nonzero"/><path stroke="#000000" stroke-width="2.0" stroke-linecap="butt" stroke-opacity="0.0" clip-path="url(#id_0)" d="M475.0 332.0L434.0 332.0L434.0 328.0C434.0 326.89542 434.89542 326.0 436.0 326.0L473.0 326.0C474.10458 326.0 475.0 326.89542 475.0 328.0Z" fill-rule="nonzero"/><path fill="#b7b7b7" clip-path="url(#id_0)" d="M475.0 332.0L434.0 332.0L434.0 328.0C434.0 326.89542 434.89542 326.0 436.0 326.0L473.0 326.0C474.10458 326.0 475.0 326.89542 475.0 328.0Z" fill-rule="nonzero"/><path stroke="#205aff" stroke-width="3.0" stroke-linejoin="round" stroke-linecap="round" d="M144.79688 66.71667L139.20312 66.71667L139.20312 65.93542L142.15625 62.654167Q142.8125 61.904167 143.0625 61.451042Q143.3125 60.982292 143.3125 60.482292Q143.3125 59.810417 142.90625 59.388542Q142.51562 58.951042 141.82812 58.951042Q141.03125 58.951042 140.57812 59.419792Q140.125 59.872917 140.125 60.701042L139.04688 60.701042Q139.04688 59.513542 139.79688 58.794792Q140.5625 58.060417 141.82812 58.060417Q143.03125 58.060417 143.71875 58.685417Q144.40625 59.310417 144.40625 60.357292Q144.40625 61.607292 142.79688 63.357292L140.51562 65.82604L144.79688 65.82604L144.79688 66.71667ZM146.70312 62.435417L147.14062 58.185417L151.51562 58.185417L151.51562 59.185417L148.0625 59.185417L147.79688 61.513542Q148.4375 61.138542 149.23438 61.138542Q150.39062 61.138542 151.07812 61.919792Q151.76562 62.685417 151.76562 63.997917Q151.76562 65.31042 151.04688 66.07604Q150.34375 66.84167 149.0625 66.84167Q147.9375 66.84167 147.21875 66.21667Q146.5 65.57604 146.40625 64.46667L147.42188 64.46667Q147.53125 65.20104 147.95312 65.57604Q148.375 65.95104 149.0625 65.95104Q149.8125 65.95104 150.25 65.43542Q150.6875 64.91979 150.6875 64.01354Q150.6875 63.154167 150.21875 62.638542Q149.75 62.122917 148.96875 62.122917Q148.26562 62.122917 147.85938 62.419792L147.57812 62.654167L146.70312 62.435417Z" fill-rule="nonzero"/><path fill="#ffffff" d="M144.79688 66.71667L139.20312 66.71667L139.20312 65.93542L142.15625 62.654167Q142.8125 61.904167 143.0625 61.451042Q143.3125 60.982292 143.3125 60.482292Q143.3125 59.810417 142.90625 59.388542Q142.51562 58.951042 141.82812 58.951042Q141.03125 58.951042 140.57812 59.419792Q140.125 59.872917 140.125 60.701042L139.04688 60.701042Q139.04688 59.513542 139.79688 58.794792Q140.5625 58.060417 141.82812 58.060417Q143.03125 58.060417 143.71875 58.685417Q144.40625 59.310417 144.40625 60.357292Q144.40625 61.607292 142.79688 63.357292L140.51562 65.82604L144.79688 65.82604L144.79688 66.71667ZM146.70312 62.435417L147.14062 58.185417L151.51562 58.185417L151.51562 59.185417L148.0625 59.185417L147.79688 61.513542Q148.4375 61.138542 149.23438 61.138542Q150.39062 61.138542 151.07812 61.919792Q151.76562 62.685417 151.76562 63.997917Q151.76562 65.31042 151.04688 66.07604Q150.34375 66.84167 149.0625 66.84167Q147.9375 66.84167 147.21875 66.21667Q146.5 65.57604 146.40625 64.46667L147.42188 64.46667Q147.53125 65.20104 147.95312 65.57604Q148.375 65.95104 149.0625 65.95104Q149.8125 65.95104 150.25 65.43542Q150.6875 64.91979 150.6875 64.01354Q150.6875 63.154167 150.21875 62.638542Q149.75 62.122917 148.96875 62.122917Q148.26562 62.122917 147.85938 62.419792L147.57812 62.654167L146.70312 62.435417Z" fill-rule="nonzero"/><path stroke="#ffffff" stroke-width="3.0" stroke-linejoin="round" stroke-linecap="round" d="M270.76562 300.27197L269.6875 300.27197L269.6875 293.05322L267.5 293.8501L267.5 292.86572L270.60938 291.69385L270.76562 291.69385L270.76562 300.27197ZM274.34375 299.70947Q274.34375 299.42822 274.5 299.24072Q274.67188 299.05322 275.0 299.05322Q275.34375 299.05322 275.51562 299.24072Q275.6875 299.42822 275.6875 299.70947Q275.6875 299.9751 275.51562 300.1626Q275.34375 300.33447 275.0 300.33447Q274.67188 300.33447 274.5 300.1626Q274.34375 299.9751 274.34375 299.70947ZM277.70312 295.99072L278.14062 291.74072L282.51562 291.74072L282.51562 292.74072L279.0625 292.74072L278.79688 295.06885Q279.4375 294.69385 280.23438 294.69385Q281.39062 294.69385 282.07812 295.4751Q282.76562 296.24072 282.76562 297.55322Q282.76562 298.86572 282.04688 299.63135Q281.34375 300.39697 280.0625 300.39697Q278.9375 300.39697 278.21875 299.77197Q277.5 299.13135 277.40625 298.02197L278.42188 298.02197Q278.53125 298.75635 278.95312 299.13135Q279.375 299.50635 280.0625 299.50635Q280.8125 299.50635 281.25 298.99072Q281.6875 298.4751 281.6875 297.56885Q281.6875 296.70947 281.21875 296.19385Q280.75 295.67822 279.96875 295.67822Q279.26562 295.67822 278.85938 295.9751L278.57812 296.20947L277.70312 295.99072ZM289.79688 300.27197L284.20312 300.27197L284.20312 299.49072L287.15625 296.20947Q287.8125 295.45947 288.0625 295.00635Q288.3125 294.5376 288.3125 294.0376Q288.3125 293.36572 287.90625 292.94385Q287.51562 292.50635 286.82812 292.50635Q286.03125 292.50635 285.57812 292.9751Q285.125 293.42822 285.125 294.25635L284.04688 294.25635Q284.04688 293.06885 284.79688 292.3501Q285.5625 291.61572 286.82812 291.61572Q288.03125 291.61572 288.71875 292.24072Q289.40625 292.86572 289.40625 293.9126Q289.40625 295.1626 287.79688 296.9126L285.51562 299.38135L289.79688 299.38135L289.79688 300.27197Z" fill-rule="nonzero"/><path fill="#205aff" d="M270.76562 300.27197L269.6875 300.27197L269.6875 293.05322L267.5 293.8501L267.5 292.86572L270.60938 291.69385L270.76562 291.69385L270.76562 300.27197ZM274.34375 299.70947Q274.34375 299.42822 274.5 299.24072Q274.67188 299.05322 275.0 299.05322Q275.34375 299.05322 275.51562 299.24072Q275.6875 299.42822 275.6875 299.70947Q275.6875 299.9751 275.51562 300.1626Q275.34375 300.33447 275.0 300.33447Q274.67188 300.33447 274.5 300.1626Q274.34375 299.9751 274.34375 299.70947ZM277.70312 295.99072L278.14062 291.74072L282.51562 291.74072L282.51562 292.74072L279.0625 292.74072L278.79688 295.06885Q279.4375 294.69385 280.23438 294.69385Q281.39062 294.69385 282.07812 295.4751Q282.76562 296.24072 282.76562 297.55322Q282.76562 298.86572 282.04688 299.63135Q281.34375 300.39697 280.0625 300.39697Q278.9375 300.39697 278.21875 299.77197Q277.5 299.13135 277.40625 298.02197L278.42188 298.02197Q278.53125 298.75635 278.95312 299.13135Q279.375 299.50635 280.0625 299.50635Q280.8125 299.50635 281.25 298.99072Q281.6875 298.4751 281.6875 297.56885Q281.6875 296.70947 281.21875 296.19385Q280.75 295.67822 279.96875 295.67822Q279.26562 295.67822 278.85938 295.9751L278.57812 296.20947L277.70312 295.99072ZM289.79688 300.27197L284.20312 300.27197L284.20312 299.49072L287.15625 296.20947Q287.8125 295.45947 288.0625 295.00635Q288.3125 294.5376 288.3125 294.0376Q288.3125 293.36572 287.90625 292.94385Q287.51562 292.50635 286.82812 292.50635Q286.03125 292.50635 285.57812 292.9751Q285.125 293.42822 285.125 294.25635L284.04688 294.25635Q284.04688 293.06885 284.79688 292.3501Q285.5625 291.61572 286.82812 291.61572Q288.03125 291.61572 288.71875 292.24072Q289.40625 292.86572 289.40625 293.9126Q289.40625 295.1626 287.79688 296.9126L285.51562 299.38135L289.79688 299.38135L289.79688 300.27197Z" fill-rule="nonzero"/><path stroke="#ffffff" stroke-width="3.0" stroke-linejoin="round" stroke-linecap="round" d="M405.5625 309.7409Q405.5625 311.64716 404.90625 312.58466Q404.26562 313.50653 402.875 313.50653Q401.51562 313.50653 400.85938 312.60028Q400.20312 311.69403 400.17188 309.88153L400.17188 308.44403Q400.17188 306.5534 400.8125 305.64716Q401.46875 304.72528 402.85938 304.72528Q404.23438 304.72528 404.89062 305.6159Q405.54688 306.4909 405.5625 308.33466L405.5625 309.7409ZM404.46875 308.25653Q404.46875 306.88153 404.07812 306.25653Q403.70312 305.6159 402.85938 305.6159Q402.03125 305.6159 401.64062 306.25653Q401.26562 306.88153 401.26562 308.1784L401.26562 309.91278Q401.26562 311.28778 401.65625 311.95966Q402.0625 312.6159 402.875 312.6159Q403.67188 312.6159 404.0625 311.9909Q404.45312 311.3659 404.46875 310.03778L404.46875 308.25653ZM407.34375 312.81903Q407.34375 312.53778 407.5 312.35028Q407.67188 312.16278 408.0 312.16278Q408.34375 312.16278 408.51562 312.35028Q408.6875 312.53778 408.6875 312.81903Q408.6875 313.08466 408.51562 313.27216Q408.34375 313.44403 408.0 313.44403Q407.67188 313.44403 407.5 313.27216Q407.34375 313.08466 407.34375 312.81903ZM411.78125 308.58466L412.59375 308.58466Q413.375 308.56903 413.8125 308.1784Q414.25 307.78778 414.25 307.1159Q414.25 305.6159 412.75 305.6159Q412.04688 305.6159 411.625 306.02216Q411.21875 306.4284 411.21875 307.08466L410.125 307.08466Q410.125 306.06903 410.85938 305.39716Q411.60938 304.72528 412.75 304.72528Q413.95312 304.72528 414.64062 305.3659Q415.32812 306.00653 415.32812 307.14716Q415.32812 307.70966 414.96875 308.22528Q414.60938 308.7409 413.98438 309.00653Q414.6875 309.22528 415.0625 309.7409Q415.45312 310.25653 415.45312 311.00653Q415.45312 312.14716 414.70312 312.83466Q413.95312 313.50653 412.75 313.50653Q411.5625 313.50653 410.79688 312.85028Q410.04688 312.19403 410.04688 311.13153L411.14062 311.13153Q411.14062 311.8034 411.57812 312.20966Q412.01562 312.6159 412.76562 312.6159Q413.54688 312.6159 413.95312 312.20966Q414.375 311.78778 414.375 311.02216Q414.375 310.28778 413.92188 309.89716Q413.46875 309.4909 412.59375 309.47528L411.78125 309.47528L411.78125 308.58466ZM421.46875 304.85028L421.46875 305.75653L421.26562 305.75653Q420.0 305.78778 419.25 306.52216Q418.5 307.2409 418.375 308.5534Q419.0625 307.78778 420.21875 307.78778Q421.32812 307.78778 422.0 308.56903Q422.67188 309.35028 422.67188 310.60028Q422.67188 311.91278 421.95312 312.70966Q421.23438 313.50653 420.01562 313.50653Q418.79688 313.50653 418.03125 312.56903Q417.28125 311.6159 417.28125 310.13153L417.28125 309.72528Q417.28125 307.3659 418.28125 306.1159Q419.28125 304.8659 421.26562 304.85028L421.46875 304.85028ZM420.04688 308.69403Q419.48438 308.69403 419.01562 309.02216Q418.54688 309.35028 418.35938 309.8659L418.35938 310.25653Q418.35938 311.31903 418.82812 311.95966Q419.3125 312.60028 420.01562 312.60028Q420.75 312.60028 421.17188 312.06903Q421.59375 311.52216 421.59375 310.64716Q421.59375 309.77216 421.17188 309.2409Q420.75 308.69403 420.04688 308.69403Z" fill-rule="nonzero"/><path fill="#205aff" d="M405.5625 309.7409Q405.5625 311.64716 404.90625 312.58466Q404.26562 313.50653 402.875 313.50653Q401.51562 313.50653 400.85938 312.60028Q400.20312 311.69403 400.17188 309.88153L400.17188 308.44403Q400.17188 306.5534 400.8125 305.64716Q401.46875 304.72528 402.85938 304.72528Q404.23438 304.72528 404.89062 305.6159Q405.54688 306.4909 405.5625 308.33466L405.5625 309.7409ZM404.46875 308.25653Q404.46875 306.88153 404.07812 306.25653Q403.70312 305.6159 402.85938 305.6159Q402.03125 305.6159 401.64062 306.25653Q401.26562 306.88153 401.26562 308.1784L401.26562 309.91278Q401.26562 311.28778 401.65625 311.95966Q402.0625 312.6159 402.875 312.6159Q403.67188 312.6159 404.0625 311.9909Q404.45312 311.3659 404.46875 310.03778L404.46875 308.25653ZM407.34375 312.81903Q407.34375 312.53778 407.5 312.35028Q407.67188 312.16278 408.0 312.16278Q408.34375 312.16278 408.51562 312.35028Q408.6875 312.53778 408.6875 312.81903Q408.6875 313.08466 408.51562 313.27216Q408.34375 313.44403 408.0 313.44403Q407.67188 313.44403 407.5 313.27216Q407.34375 313.08466 407.34375 312.81903ZM411.78125 308.58466L412.59375 308.58466Q413.375 308.56903 413.8125 308.1784Q414.25 307.78778 414.25 307.1159Q414.25 305.6159 412.75 305.6159Q412.04688 305.6159 411.625 306.02216Q411.21875 306.4284 411.21875 307.08466L410.125 307.08466Q410.125 306.06903 410.85938 305.39716Q411.60938 304.72528 412.75 304.72528Q413.95312 304.72528 414.64062 305.3659Q415.32812 306.00653 415.32812 307.14716Q415.32812 307.70966 414.96875 308.22528Q414.60938 308.7409 413.98438 309.00653Q414.6875 309.22528 415.0625 309.7409Q415.45312 310.25653 415.45312 311.00653Q415.45312 312.14716 414.70312 312.83466Q413.95312 313.50653 412.75 313.50653Q411.5625 313.50653 410.79688 312.85028Q410.04688 312.19403 410.04688 311.13153L411.14062 311.13153Q411.14062 311.8034 411.57812 312.20966Q412.01562 312.6159 412.76562 312.6159Q413.54688 312.6159 413.95312 312.20966Q414.375 311.78778 414.375 311.02216Q414.375 310.28778 413.92188 309.89716Q413.46875 309.4909 412.59375 309.47528L411.78125 309.47528L411.78125 308.58466ZM421.46875 304.85028L421.46875 305.75653L421.26562 305.75653Q420.0 305.78778 419.25 306.52216Q418.5 307.2409 418.375 308.5534Q419.0625 307.78778 420.21875 307.78778Q421.32812 307.78778 422.0 308.56903Q422.67188 309.35028 422.67188 310.60028Q422.67188 311.91278 421.95312 312.70966Q421.23438 313.50653 420.01562 313.50653Q418.79688 313.50653 418.03125 312.56903Q417.28125 311.6159 417.28125 310.13153L417.28125 309.72528Q417.28125 307.3659 418.28125 306.1159Q419.28125 304.8659 421.26562 304.85028L421.46875 304.85028ZM420.04688 308.69403Q419.48438 308.69403 419.01562 309.02216Q418.54688 309.35028 418.35938 309.8659L418.35938 310.25653Q418.35938 311.31903 418.82812 311.95966Q419.3125 312.60028 420.01562 312.60028Q420.75 312.60028 421.17188 312.06903Q421.59375 311.52216 421.59375 310.64716Q421.59375 309.77216 421.17188 309.2409Q420.75 308.69403 420.04688 308.69403Z" fill-rule="nonzero"/><path stroke="#b7b7b7" stroke-width="3.0" stroke-linejoin="round" stroke-linecap="round" d="M180.28125 73.92746L181.09375 73.92746Q181.875 73.911835 182.3125 73.52121Q182.75 73.130585 182.75 72.45871Q182.75 70.95871 181.25 70.95871Q180.54688 70.95871 180.125 71.36496Q179.71875 71.77121 179.71875 72.42746L178.625 72.42746Q178.625 71.411835 179.35938 70.73996Q180.10938 70.068085 181.25 70.068085Q182.45312 70.068085 183.14062 70.70871Q183.82812 71.349335 183.82812 72.48996Q183.82812 73.05246 183.46875 73.568085Q183.10938 74.08371 182.48438 74.349335Q183.1875 74.568085 183.5625 75.08371Q183.95312 75.599335 183.95312 76.349335Q183.95312 77.48996 183.20312 78.17746Q182.45312 78.849335 181.25 78.849335Q180.0625 78.849335 179.29688 78.193085Q178.54688 77.536835 178.54688 76.474335L179.64062 76.474335Q179.64062 77.14621 180.07812 77.55246Q180.51562 77.95871 181.26562 77.95871Q182.04688 77.95871 182.45312 77.55246Q182.875 77.130585 182.875 76.36496Q182.875 75.630585 182.42188 75.23996Q181.96875 74.83371 181.09375 74.818085L180.28125 74.818085L180.28125 73.92746ZM190.89062 72.411835Q190.89062 73.05246 190.54688 73.55246Q190.20312 74.05246 189.64062 74.33371Q190.29688 74.61496 190.6875 75.17746Q191.07812 75.724335 191.07812 76.42746Q191.07812 77.52121 190.32812 78.193085Q189.59375 78.849335 188.375 78.849335Q187.14062 78.849335 186.39062 78.193085Q185.65625 77.52121 185.65625 76.42746Q185.65625 75.724335 186.03125 75.17746Q186.40625 74.61496 187.07812 74.33371Q186.51562 74.05246 186.1875 73.55246Q185.85938 73.05246 185.85938 72.411835Q185.85938 71.33371 186.54688 70.70871Q187.23438 70.068085 188.375 70.068085Q189.5 70.068085 190.1875 70.70871Q190.89062 71.33371 190.89062 72.411835ZM190.0 76.39621Q190.0 75.67746 189.54688 75.23996Q189.09375 74.786835 188.35938 74.786835Q187.625 74.786835 187.17188 75.23996Q186.73438 75.67746 186.73438 76.411835Q186.73438 77.130585 187.17188 77.55246Q187.60938 77.95871 188.375 77.95871Q189.125 77.95871 189.5625 77.536835Q190.0 77.11496 190.0 76.39621ZM188.375 70.95871Q187.73438 70.95871 187.32812 71.36496Q186.9375 71.755585 186.9375 72.443085Q186.9375 73.08371 187.32812 73.48996Q187.71875 73.89621 188.35938 73.89621Q189.01562 73.89621 189.40625 73.48996Q189.79688 73.08371 189.79688 72.443085Q189.79688 71.786835 189.39062 71.380585Q188.98438 70.95871 188.375 70.95871ZM194.28125 73.92746L195.09375 73.92746Q195.875 73.911835 196.3125 73.52121Q196.75 73.130585 196.75 72.45871Q196.75 70.95871 195.25 70.95871Q194.54688 70.95871 194.125 71.36496Q193.71875 71.77121 193.71875 72.42746L192.625 72.42746Q192.625 71.411835 193.35938 70.73996Q194.10938 70.068085 195.25 70.068085Q196.45312 70.068085 197.14062 70.70871Q197.82812 71.349335 197.82812 72.48996Q197.82812 73.05246 197.46875 73.568085Q197.10938 74.08371 196.48438 74.349335Q197.1875 74.568085 197.5625 75.08371Q197.95312 75.599335 197.95312 76.349335Q197.95312 77.48996 197.20312 78.17746Q196.45312 78.849335 195.25 78.849335Q194.0625 78.849335 193.29688 78.193085Q192.54688 77.536835 192.54688 76.474335L193.64062 76.474335Q193.64062 77.14621 194.07812 77.55246Q194.51562 77.95871 195.26562 77.95871Q196.04688 77.95871 196.45312 77.55246Q196.875 77.130585 196.875 76.36496Q196.875 75.630585 196.42188 75.23996Q195.96875 74.83371 195.09375 74.818085L194.28125 74.818085L194.28125 73.92746Z" fill-rule="nonzero"/><path fill="#000000" d="M180.28125 73.92746L181.09375 73.92746Q181.875 73.911835 182.3125 73.52121Q182.75 73.130585 182.75 72.45871Q182.75 70.95871 181.25 70.95871Q180.54688 70.95871 180.125 71.36496Q179.71875 71.77121 179.71875 72.42746L178.625 72.42746Q178.625 71.411835 179.35938 70.73996Q180.10938 70.068085 181.25 70.068085Q182.45312 70.068085 183.14062 70.70871Q183.82812 71.349335 183.82812 72.48996Q183.82812 73.05246 183.46875 73.568085Q183.10938 74.08371 182.48438 74.349335Q183.1875 74.568085 183.5625 75.08371Q183.95312 75.599335 183.95312 76.349335Q183.95312 77.48996 183.20312 78.17746Q182.45312 78.849335 181.25 78.849335Q180.0625 78.849335 179.29688 78.193085Q178.54688 77.536835 178.54688 76.474335L179.64062 76.474335Q179.64062 77.14621 180.07812 77.55246Q180.51562 77.95871 181.26562 77.95871Q182.04688 77.95871 182.45312 77.55246Q182.875 77.130585 182.875 76.36496Q182.875 75.630585 182.42188 75.23996Q181.96875 74.83371 181.09375 74.818085L180.28125 74.818085L180.28125 73.92746ZM190.89062 72.411835Q190.89062 73.05246 190.54688 73.55246Q190.20312 74.05246 189.64062 74.33371Q190.29688 74.61496 190.6875 75.17746Q191.07812 75.724335 191.07812 76.42746Q191.07812 77.52121 190.32812 78.193085Q189.59375 78.849335 188.375 78.849335Q187.14062 78.849335 186.39062 78.193085Q185.65625 77.52121 185.65625 76.42746Q185.65625 75.724335 186.03125 75.17746Q186.40625 74.61496 187.07812 74.33371Q186.51562 74.05246 186.1875 73.55246Q185.85938 73.05246 185.85938 72.411835Q185.85938 71.33371 186.54688 70.70871Q187.23438 70.068085 188.375 70.068085Q189.5 70.068085 190.1875 70.70871Q190.89062 71.33371 190.89062 72.411835ZM190.0 76.39621Q190.0 75.67746 189.54688 75.23996Q189.09375 74.786835 188.35938 74.786835Q187.625 74.786835 187.17188 75.23996Q186.73438 75.67746 186.73438 76.411835Q186.73438 77.130585 187.17188 77.55246Q187.60938 77.95871 188.375 77.95871Q189.125 77.95871 189.5625 77.536835Q190.0 77.11496 190.0 76.39621ZM188.375 70.95871Q187.73438 70.95871 187.32812 71.36496Q186.9375 71.755585 186.9375 72.443085Q186.9375 73.08371 187.32812 73.48996Q187.71875 73.89621 188.35938 73.89621Q189.01562 73.89621 189.40625 73.48996Q189.79688 73.08371 189.79688 72.443085Q189.79688 71.786835 189.39062 71.380585Q188.98438 70.95871 188.375 70.95871ZM194.28125 73.92746L195.09375 73.92746Q195.875 73.911835 196.3125 73.52121Q196.75 73.130585 196.75 72.45871Q196.75 70.95871 195.25 70.95871Q194.54688 70.95871 194.125 71.36496Q193.71875 71.77121 193.71875 72.42746L192.625 72.42746Q192.625 71.411835 193.35938 70.73996Q194.10938 70.068085 195.25 70.068085Q196.45312 70.068085 197.14062 70.70871Q197.82812 71.349335 197.82812 72.48996Q197.82812 73.05246 197.46875 73.568085Q197.10938 74.08371 196.48438 74.349335Q197.1875 74.568085 197.5625 75.08371Q197.95312 75.599335 197.95312 76.349335Q197.95312 77.48996 197.20312 78.17746Q196.45312 78.849335 195.25 78.849335Q194.0625 78.849335 193.29688 78.193085Q192.54688 77.536835 192.54688 76.474335L193.64062 76.474335Q193.64062 77.14621 194.07812 77.55246Q194.51562 77.95871 195.26562 77.95871Q196.04688 77.95871 196.45312 77.55246Q196.875 77.130585 196.875 76.36496Q196.875 75.630585 196.42188 75.23996Q195.96875 74.83371 195.09375 74.818085L194.28125 74.818085L194.28125 73.92746Z" fill-rule="nonzero"/><path stroke="#ffffff" stroke-width="3.0" stroke-linejoin="round" stroke-linecap="round" d="M322.85938 307.343Q322.53125 307.74924 322.04688 307.99924Q321.57812 308.2336 321.01562 308.2336Q320.28125 308.2336 319.73438 307.87424Q319.1875 307.51486 318.89062 306.8586Q318.59375 306.18674 318.59375 305.38986Q318.59375 304.5461 318.90625 303.8586Q319.23438 303.1711 319.82812 302.81174Q320.4375 302.43674 321.23438 302.43674Q322.5 302.43674 323.21875 303.38986Q323.95312 304.343 323.95312 305.968L323.95312 306.2805Q323.95312 308.7805 322.96875 309.9211Q321.98438 311.06174 320.0 311.093L319.78125 311.093L319.78125 310.18674L320.01562 310.18674Q321.35938 310.1555 322.07812 309.4836Q322.79688 308.81174 322.85938 307.343ZM321.1875 307.343Q321.73438 307.343 322.1875 307.01486Q322.65625 306.6711 322.875 306.18674L322.875 305.74924Q322.875 304.68674 322.40625 304.01486Q321.9375 303.343 321.23438 303.343Q320.51562 303.343 320.07812 303.88986Q319.65625 304.43674 319.65625 305.343Q319.65625 306.218 320.0625 306.7805Q320.48438 307.343 321.1875 307.343Z" fill-rule="nonzero"/><path fill="#b7b7b7" d="M322.85938 307.343Q322.53125 307.74924 322.04688 307.99924Q321.57812 308.2336 321.01562 308.2336Q320.28125 308.2336 319.73438 307.87424Q319.1875 307.51486 318.89062 306.8586Q318.59375 306.18674 318.59375 305.38986Q318.59375 304.5461 318.90625 303.8586Q319.23438 303.1711 319.82812 302.81174Q320.4375 302.43674 321.23438 302.43674Q322.5 302.43674 323.21875 303.38986Q323.95312 304.343 323.95312 305.968L323.95312 306.2805Q323.95312 308.7805 322.96875 309.9211Q321.98438 311.06174 320.0 311.093L319.78125 311.093L319.78125 310.18674L320.01562 310.18674Q321.35938 310.1555 322.07812 309.4836Q322.79688 308.81174 322.85938 307.343ZM321.1875 307.343Q321.73438 307.343 322.1875 307.01486Q322.65625 306.6711 322.875 306.18674L322.875 305.74924Q322.875 304.68674 322.40625 304.01486Q321.9375 303.343 321.23438 303.343Q320.51562 303.343 320.07812 303.88986Q319.65625 304.43674 319.65625 305.343Q319.65625 306.218 320.0625 306.7805Q320.48438 307.343 321.1875 307.343Z" fill-rule="nonzero"/><path stroke="#ffffff" stroke-width="3.0" stroke-linejoin="round" stroke-linecap="round" d="M455.85938 307.343Q455.53125 307.74924 455.04688 307.99924Q454.57812 308.2336 454.01562 308.2336Q453.28125 308.2336 452.73438 307.87424Q452.1875 307.51486 451.89062 306.8586Q451.59375 306.18674 451.59375 305.38986Q451.59375 304.5461 451.90625 303.8586Q452.23438 303.1711 452.82812 302.81174Q453.4375 302.43674 454.23438 302.43674Q455.5 302.43674 456.21875 303.38986Q456.95312 304.343 456.95312 305.968L456.95312 306.2805Q456.95312 308.7805 455.96875 309.9211Q454.98438 311.06174 453.0 311.093L452.78125 311.093L452.78125 310.18674L453.01562 310.18674Q454.35938 310.1555 455.07812 309.4836Q455.79688 308.81174 455.85938 307.343ZM454.1875 307.343Q454.73438 307.343 455.1875 307.01486Q455.65625 306.6711 455.875 306.18674L455.875 305.74924Q455.875 304.68674 455.40625 304.01486Q454.9375 303.343 454.23438 303.343Q453.51562 303.343 453.07812 303.88986Q452.65625 304.43674 452.65625 305.343Q452.65625 306.218 453.0625 306.7805Q453.48438 307.343 454.1875 307.343Z" fill-rule="nonzero"/><path fill="#b7b7b7" d="M455.85938 307.343Q455.53125 307.74924 455.04688 307.99924Q454.57812 308.2336 454.01562 308.2336Q453.28125 308.2336 452.73438 307.87424Q452.1875 307.51486 451.89062 306.8586Q451.59375 306.18674 451.59375 305.38986Q451.59375 304.5461 451.90625 303.8586Q452.23438 303.1711 452.82812 302.81174Q453.4375 302.43674 454.23438 302.43674Q455.5 302.43674 456.21875 303.38986Q456.95312 304.343 456.95312 305.968L456.95312 306.2805Q456.95312 308.7805 455.96875 309.9211Q454.98438 311.06174 453.0 311.093L452.78125 311.093L452.78125 310.18674L453.01562 310.18674Q454.35938 310.1555 455.07812 309.4836Q455.79688 308.81174 455.85938 307.343ZM454.1875 307.343Q454.73438 307.343 455.1875 307.01486Q455.65625 306.6711 455.875 306.18674L455.875 305.74924Q455.875 304.68674 455.40625 304.01486Q454.9375 303.343 454.23438 303.343Q453.51562 303.343 453.07812 303.88986Q452.65625 304.43674 452.65625 305.343Q452.65625 306.218 453.0625 306.7805Q453.48438 307.343 454.1875 307.343Z" fill-rule="nonzero"/><path fill="#205aff" d="M26.534388 211.62083L26.831263 210.49583Q28.221888 210.85521 28.956263 211.77708Q29.690638 212.69896 29.690638 214.04271Q29.690638 215.43333 29.128138 216.30833Q28.565638 217.18333 27.503138 217.63646Q26.425013 218.08958 25.190638 218.08958Q23.846888 218.08958 22.846888 217.57396Q21.846888 217.05833 21.331263 216.12083Q20.815638 215.16771 20.815638 214.02708Q20.815638 212.74583 21.471888 211.87083Q22.128138 210.98021 23.315638 210.63646L23.581263 211.76146Q22.643763 212.05833 22.221888 212.63646Q21.784388 213.19896 21.784388 214.05833Q21.784388 215.04271 22.268763 215.71458Q22.737513 216.37083 23.534388 216.65208Q24.331263 216.91771 25.190638 216.91771Q26.284388 216.91771 27.096888 216.60521Q27.909388 216.27708 28.315638 215.60521Q28.721888 214.93333 28.721888 214.13646Q28.721888 213.18333 28.175013 212.52708Q27.628138 211.85521 26.534388 211.62083ZM26.440638 209.27708Q24.706263 209.27708 23.878138 208.32396Q23.190638 207.52708 23.190638 206.37083Q23.190638 205.08958 24.034388 204.27708Q24.862513 203.44896 26.346888 203.44896Q27.550013 203.44896 28.237513 203.80833Q28.925013 204.16771 29.315638 204.87083Q29.690638 205.55833 29.690638 206.37083Q29.690638 207.66771 28.862513 208.48021Q28.018763 209.27708 26.440638 209.27708ZM26.440638 208.19896Q27.628138 208.19896 28.221888 207.68333Q28.815638 207.15208 28.815638 206.37083Q28.815638 205.57396 28.221888 205.05833Q27.628138 204.54271 26.409388 204.54271Q25.253138 204.54271 24.659388 205.07396Q24.065638 205.58958 24.065638 206.37083Q24.065638 207.15208 24.659388 207.68333Q25.237513 208.19896 26.440638 208.19896ZM27.690638 202.30833L27.534388 201.27708Q28.159388 201.18333 28.487513 200.79271Q28.815638 200.38646 28.815638 199.65208Q28.815638 198.93333 28.534388 198.58958Q28.237513 198.23021 27.831263 198.23021Q27.471888 198.23021 27.268763 198.54271Q27.128138 198.76146 26.909388 199.62083Q26.612513 200.77708 26.409388 201.23021Q26.190638 201.66771 25.815638 201.90208Q25.440638 202.13646 24.971888 202.13646Q24.565638 202.13646 24.206263 201.94896Q23.846888 201.76146 23.612513 201.43333Q23.440638 201.18333 23.315638 200.76146Q23.190638 200.33958 23.190638 199.83958Q23.190638 199.12083 23.409388 198.57396Q23.612513 198.01146 23.971888 197.74583Q24.331263 197.48021 24.925013 197.38646L25.065638 198.41771Q24.596888 198.48021 24.331263 198.82396Q24.050013 199.15208 24.050013 199.77708Q24.050013 200.49583 24.300013 200.80833Q24.534388 201.12083 24.862513 201.12083Q25.065638 201.12083 25.221888 200.99583Q25.393763 200.85521 25.503138 200.58958Q25.565638 200.43333 25.768763 199.65208Q26.081263 198.52708 26.268763 198.08958Q26.456263 197.65208 26.815638 197.40208Q27.175013 197.15208 27.721888 197.15208Q28.253138 197.15208 28.721888 197.46458Q29.175013 197.76146 29.440638 198.33958Q29.690638 198.91771 29.690638 199.65208Q29.690638 200.87083 29.190638 201.51146Q28.675013 202.13646 27.690638 202.30833ZM28.612513 192.58958L29.534388 192.43333Q29.628138 192.88646 29.628138 193.23021Q29.628138 193.80833 29.456263 194.12083Q29.268763 194.43333 28.971888 194.57396Q28.675013 194.69896 27.721888 194.69896L24.143763 194.69896L24.143763 195.46458L23.331263 195.46458L23.331263 194.69896L21.784388 194.69896L21.159388 193.65208L23.331263 193.65208L23.331263 192.58958L24.143763 192.58958L24.143763 193.65208L27.784388 193.65208Q28.237513 193.65208 28.362513 193.60521Q28.487513 193.54271 28.565638 193.41771Q28.643763 193.29271 28.643763 193.05833Q28.643763 192.87083 28.612513 192.58958ZM31.940638 188.87083L20.956263 188.87083L20.956263 186.54271L21.831263 186.54271L21.831263 187.80833L31.065638 187.80833L31.065638 186.54271L31.940638 186.54271L31.940638 188.87083ZM30.784388 183.69896L29.737513 183.69896Q29.628138 184.48021 29.378138 184.98021Q29.128138 185.48021 28.565638 185.83958Q27.987513 186.19896 27.159388 186.26146L26.971888 185.19896Q27.815638 185.07396 28.206263 184.76146Q28.768763 184.30833 28.846888 183.69896L25.487513 183.69896Q25.362513 184.33958 24.971888 185.02708Q24.690638 185.52708 24.206263 185.80833Q23.706263 186.07396 23.065638 186.07396Q21.940638 186.07396 21.253138 185.27708Q20.784388 184.74583 20.675013 183.69896L20.175013 183.69896L20.175013 183.07396L20.675013 183.07396Q20.753138 182.15208 21.206263 181.62083Q21.784388 180.91771 22.784388 180.77708L22.956263 181.87083Q22.331263 181.96458 22.003138 182.26146Q21.675013 182.55833 21.565638 183.07396L24.596888 183.07396Q24.800013 182.27708 24.909388 182.01146Q25.128138 181.52708 25.440638 181.21458Q25.753138 180.90208 26.190638 180.74583Q26.612513 180.57396 27.112513 180.57396Q28.206263 180.57396 28.940638 181.27708Q29.675013 181.96458 29.721888 183.07396L30.784388 183.07396L30.784388 183.69896ZM21.550013 183.69896Q21.643763 184.30833 22.050013 184.66771Q22.440638 185.01146 22.987513 185.01146Q23.518763 185.01146 23.893763 184.71458Q24.253138 184.41771 24.471888 183.69896L21.550013 183.69896ZM28.846888 183.07396Q28.768763 182.46458 28.315638 182.05833Q27.846888 181.65208 27.175013 181.65208Q26.596888 181.65208 26.253138 181.94896Q25.909388 182.23021 25.628138 183.07396L28.846888 183.07396ZM31.940638 177.12083L31.940638 179.44896L31.065638 179.44896L31.065638 178.18333L21.831263 178.18333L21.831263 179.44896L20.956263 179.44896L20.956263 177.12083L31.940638 177.12083Z" fill-rule="nonzero"/><path fill="#999999" d="M578.45 247.26144L569.85626 247.26144L569.85626 244.2927Q569.85626 243.2927 569.98126 242.76144Q570.15314 242.02707 570.59064 241.51144Q571.16876 240.82394 572.075 240.49582Q572.96564 240.15207 574.10626 240.15207Q575.09064 240.15207 575.84064 240.38644Q576.59064 240.6052 577.09064 240.96457Q577.59064 241.32394 577.8719 241.76144Q578.15314 242.18332 578.3094 242.77707Q578.45 243.37082 578.45 244.15207L578.45 247.26144ZM577.4344 246.12082L577.4344 244.2927Q577.4344 243.43332 577.27814 242.94894Q577.1219 242.46457 576.825 242.18332Q576.4344 241.77707 575.7469 241.55832Q575.0594 241.32394 574.09064 241.32394Q572.7469 241.32394 572.02814 241.77707Q571.29376 242.21457 571.04376 242.83957Q570.8719 243.30832 570.8719 244.30832L570.8719 246.12082L577.4344 246.12082ZM578.45 234.30832L577.52814 234.30832Q578.59064 235.0427 578.59064 236.2927Q578.59064 236.83957 578.3875 237.32394Q578.16876 237.7927 577.85626 238.02707Q577.52814 238.26144 577.0594 238.3552Q576.7625 238.4177 576.075 238.4177L572.23126 238.4177L572.23126 237.3552L575.6844 237.3552Q576.4969 237.3552 576.79376 237.2927Q577.2 237.19894 577.45 236.88644Q577.6844 236.55832 577.6844 236.07394Q577.6844 235.6052 577.45 235.19894Q577.2 234.77707 576.77814 234.6052Q576.35626 234.4177 575.5594 234.4177L572.23126 234.4177L572.23126 233.37082L578.45 233.37082L578.45 234.30832ZM578.45 231.40207L572.23126 231.40207L572.23126 230.44894L573.16876 230.44894Q572.5125 230.08957 572.3094 229.7927Q572.09064 229.4802 572.09064 229.1052Q572.09064 228.57394 572.41876 228.02707L573.40314 228.38644Q573.16876 228.77707 573.16876 229.15207Q573.16876 229.51144 573.3875 229.7927Q573.59064 230.05832 573.96564 230.1677Q574.52814 230.3552 575.1844 230.3552L578.45 230.3552L578.45 231.40207ZM577.6844 223.32394Q578.1844 223.9177 578.3875 224.46457Q578.59064 224.99582 578.59064 225.62082Q578.59064 226.65207 578.09064 227.19894Q577.59064 227.74582 576.8094 227.74582Q576.35626 227.74582 575.98126 227.5427Q575.59064 227.33957 575.3719 226.99582Q575.1375 226.65207 575.02814 226.2302Q574.9344 225.93332 574.85626 225.2927Q574.71564 224.02707 574.4969 223.4177Q574.27814 223.4177 574.23126 223.4177Q573.575 223.4177 573.3094 223.71457Q572.96564 224.12082 572.96564 224.9177Q572.96564 225.65207 573.23126 226.01144Q573.48126 226.37082 574.1375 226.5427L573.9969 227.57394Q573.34064 227.43332 572.9344 227.1052Q572.52814 226.77707 572.3094 226.1677Q572.09064 225.55832 572.09064 224.76144Q572.09064 223.96457 572.27814 223.46457Q572.46564 222.96457 572.7469 222.7302Q573.02814 222.49582 573.46564 222.40207Q573.73126 222.3552 574.4344 222.3552L575.84064 222.3552Q577.3094 222.3552 577.7 222.2927Q578.09064 222.21457 578.45 222.01144L578.45 223.12082Q578.1219 223.27707 577.6844 223.32394ZM575.325 223.4177Q575.5594 223.99582 575.73126 225.13644Q575.825 225.7927 575.95 226.05832Q576.0594 226.32394 576.27814 226.4802Q576.4969 226.62082 576.77814 226.62082Q577.2 226.62082 577.48126 226.30832Q577.7625 225.9802 577.7625 225.37082Q577.7625 224.76144 577.4969 224.2927Q577.23126 223.80832 576.7625 223.58957Q576.40314 223.4177 575.71564 223.4177L575.325 223.4177ZM577.5125 218.08957L578.4344 217.93332Q578.52814 218.38644 578.52814 218.7302Q578.52814 219.30832 578.35626 219.62082Q578.16876 219.93332 577.8719 220.07394Q577.575 220.19894 576.6219 220.19894L573.04376 220.19894L573.04376 220.96457L572.23126 220.96457L572.23126 220.19894L570.6844 220.19894L570.0594 219.15207L572.23126 219.15207L572.23126 218.08957L573.04376 218.08957L573.04376 219.15207L576.6844 219.15207Q577.1375 219.15207 577.2625 219.1052Q577.3875 219.0427 577.46564 218.9177Q577.54376 218.7927 577.54376 218.55832Q577.54376 218.37082 577.5125 218.08957ZM571.075 217.38644L569.85626 217.38644L569.85626 216.32394L571.075 216.32394L571.075 217.38644ZM578.45 217.38644L572.23126 217.38644L572.23126 216.32394L578.45 216.32394L578.45 217.38644ZM575.34064 214.77707Q573.60626 214.77707 572.77814 213.82394Q572.09064 213.02707 572.09064 211.87082Q572.09064 210.58957 572.9344 209.77707Q573.7625 208.94894 575.2469 208.94894Q576.45 208.94894 577.1375 209.30832Q577.825 209.6677 578.21564 210.37082Q578.59064 211.05832 578.59064 211.87082Q578.59064 213.1677 577.7625 213.9802Q576.91876 214.77707 575.34064 214.77707ZM575.34064 213.69894Q576.52814 213.69894 577.1219 213.18332Q577.71564 212.65207 577.71564 211.87082Q577.71564 211.07394 577.1219 210.55832Q576.52814 210.0427 575.3094 210.0427Q574.15314 210.0427 573.5594 210.57394Q572.96564 211.08957 572.96564 211.87082Q572.96564 212.65207 573.5594 213.18332Q574.1375 213.69894 575.34064 213.69894ZM578.45 207.38644L572.23126 207.38644L572.23126 206.44894L573.10626 206.44894Q572.09064 205.76144 572.09064 204.46457Q572.09064 203.90207 572.29376 203.43332Q572.4969 202.94894 572.825 202.71457Q573.15314 202.4802 573.59064 202.38644Q573.8875 202.33957 574.6219 202.33957L578.45 202.33957L578.45 203.38644L574.66876 203.38644Q574.0125 203.38644 573.7 203.51144Q573.3875 203.63644 573.2 203.94894Q572.9969 204.26144 572.9969 204.68332Q572.9969 205.3552 573.4344 205.8552Q573.85626 206.33957 575.04376 206.33957L578.45 206.33957L578.45 207.38644ZM580.84064 197.37082L569.85626 197.37082L569.85626 195.0427L570.73126 195.0427L570.73126 196.30832L579.96564 196.30832L579.96564 195.0427L580.84064 195.0427L580.84064 197.37082ZM578.45 194.38644L572.23126 194.38644L572.23126 193.44894L573.10626 193.44894Q572.6375 193.15207 572.3719 192.6677Q572.09064 192.18332 572.09064 191.55832Q572.09064 190.87082 572.3719 190.43332Q572.65314 189.9802 573.16876 189.80832Q572.09064 189.05832 572.09064 187.88644Q572.09064 186.94894 572.60626 186.46457Q573.10626 185.96457 574.1844 185.96457L578.45 185.96457L578.45 187.01144L574.52814 187.01144Q573.90314 187.01144 573.6219 187.12082Q573.34064 187.21457 573.16876 187.4802Q572.9969 187.74582 572.9969 188.12082Q572.9969 188.77707 573.4344 189.21457Q573.8719 189.63644 574.84064 189.63644L578.45 189.63644L578.45 190.69894L574.40314 190.69894Q573.7 190.69894 573.35626 190.96457Q572.9969 191.21457 572.9969 191.7927Q572.9969 192.24582 573.23126 192.62082Q573.46564 192.99582 573.91876 193.1677Q574.3719 193.33957 575.21564 193.33957L578.45 193.33957L578.45 194.38644ZM571.075 183.38644L569.85626 183.38644L569.85626 182.32394L571.075 182.32394L571.075 183.38644ZM578.45 183.38644L572.23126 183.38644L572.23126 182.32394L578.45 182.32394L578.45 183.38644ZM578.45 180.38644L572.23126 180.38644L572.23126 179.44894L573.10626 179.44894Q572.09064 178.76144 572.09064 177.46457Q572.09064 176.90207 572.29376 176.43332Q572.4969 175.94894 572.825 175.71457Q573.15314 175.4802 573.59064 175.38644Q573.8875 175.33957 574.6219 175.33957L578.45 175.33957L578.45 176.38644L574.66876 176.38644Q574.0125 176.38644 573.7 176.51144Q573.3875 176.63644 573.2 176.94894Q572.9969 177.26144 572.9969 177.68332Q572.9969 178.3552 573.4344 178.8552Q573.85626 179.33957 575.04376 179.33957L578.45 179.33957L578.45 180.38644ZM578.45 169.30832L577.52814 169.30832Q578.59064 170.0427 578.59064 171.2927Q578.59064 171.83957 578.3875 172.32394Q578.16876 172.7927 577.85626 173.02707Q577.52814 173.26144 577.0594 173.3552Q576.7625 173.4177 576.075 173.4177L572.23126 173.4177L572.23126 172.3552L575.6844 172.3552Q576.4969 172.3552 576.79376 172.2927Q577.2 172.19894 577.45 171.88644Q577.6844 171.55832 577.6844 171.07394Q577.6844 170.6052 577.45 170.19894Q577.2 169.77707 576.77814 169.6052Q576.35626 169.4177 575.5594 169.4177L572.23126 169.4177L572.23126 168.37082L578.45 168.37082L578.45 169.30832ZM577.5125 164.08957L578.4344 163.93332Q578.52814 164.38644 578.52814 164.7302Q578.52814 165.30832 578.35626 165.62082Q578.16876 165.93332 577.8719 166.07394Q577.575 166.19894 576.6219 166.19894L573.04376 166.19894L573.04376 166.96457L572.23126 166.96457L572.23126 166.19894L570.6844 166.19894L570.0594 165.15207L572.23126 165.15207L572.23126 164.08957L573.04376 164.08957L573.04376 165.15207L576.6844 165.15207Q577.1375 165.15207 577.2625 165.1052Q577.3875 165.0427 577.46564 164.9177Q577.54376 164.7927 577.54376 164.55832Q577.54376 164.37082 577.5125 164.08957ZM576.45 159.13644L576.575 158.0427Q577.52814 158.2927 578.0594 158.99582Q578.59064 159.69894 578.59064 160.77707Q578.59064 162.13644 577.7469 162.94894Q576.90314 163.74582 575.3875 163.74582Q573.825 163.74582 572.96564 162.93332Q572.09064 162.12082 572.09064 160.83957Q572.09064 159.58957 572.9344 158.80832Q573.77814 158.01144 575.325 158.01144Q575.41876 158.01144 575.60626 158.01144L575.60626 162.65207Q576.6375 162.58957 577.1844 162.07394Q577.71564 161.55832 577.71564 160.77707Q577.71564 160.19894 577.41876 159.7927Q577.10626 159.37082 576.45 159.13644ZM574.7469 162.58957L574.7469 159.12082Q573.95 159.18332 573.5594 159.51144Q572.95 160.02707 572.95 160.82394Q572.95 161.55832 573.4344 162.05832Q573.91876 162.5427 574.7469 162.58957ZM576.59064 156.80832L576.4344 155.77707Q577.0594 155.68332 577.3875 155.2927Q577.71564 154.88644 577.71564 154.15207Q577.71564 153.43332 577.4344 153.08957Q577.1375 152.7302 576.73126 152.7302Q576.3719 152.7302 576.16876 153.0427Q576.02814 153.26144 575.8094 154.12082Q575.5125 155.27707 575.3094 155.7302Q575.09064 156.1677 574.71564 156.40207Q574.34064 156.63644 573.8719 156.63644Q573.46564 156.63644 573.10626 156.44894Q572.7469 156.26144 572.5125 155.93332Q572.34064 155.68332 572.21564 155.26144Q572.09064 154.83957 572.09064 154.33957Q572.09064 153.62082 572.3094 153.07394Q572.5125 152.51144 572.8719 152.24582Q573.23126 151.9802 573.825 151.88644L573.96564 152.9177Q573.4969 152.9802 573.23126 153.32394Q572.95 153.65207 572.95 154.27707Q572.95 154.99582 573.2 155.30832Q573.4344 155.62082 573.7625 155.62082Q573.96564 155.62082 574.1219 155.49582Q574.29376 155.3552 574.40314 155.08957Q574.46564 154.93332 574.66876 154.15207Q574.98126 153.02707 575.16876 152.58957Q575.35626 152.15207 575.71564 151.90207Q576.075 151.65207 576.6219 151.65207Q577.15314 151.65207 577.6219 151.96457Q578.075 152.26144 578.34064 152.83957Q578.59064 153.4177 578.59064 154.15207Q578.59064 155.37082 578.09064 156.01144Q577.575 156.63644 576.59064 156.80832ZM580.84064 147.62082L580.84064 149.94894L579.96564 149.94894L579.96564 148.68332L570.73126 148.68332L570.73126 149.94894L569.85626 149.94894L569.85626 147.62082L580.84064 147.62082Z" fill-rule="nonzero"/><path fill="#205aff" d="M65.05 332.21564Q65.05 330.6844 65.3625 329.7625Q65.675 328.825 66.28438 328.325Q66.90938 327.825 67.84688 327.825Q68.53438 327.825 69.05 328.10626Q69.58125 328.3875 69.925 328.91876Q70.26875 329.4344 70.45625 330.1844Q70.64375 330.9344 70.64375 332.21564Q70.64375 333.73126 70.33125 334.65314Q70.03438 335.575 69.40938 336.09064Q68.8 336.59064 67.84688 336.59064Q66.6125 336.59064 65.89375 335.7Q65.05 334.6375 65.05 332.21564ZM66.12813 332.21564Q66.12813 334.325 66.62813 335.02814Q67.12813 335.73126 67.84688 335.73126Q68.58125 335.73126 69.06563 335.02814Q69.56563 334.325 69.56563 332.21564Q69.56563 330.09064 69.06563 329.40314Q68.58125 328.7 67.83125 328.7Q67.1125 328.7 66.675 329.3094Q66.12813 330.09064 66.12813 332.21564Z" fill-rule="nonzero"/><path fill="#205aff" d="M65.05 277.69333L66.15938 277.59958Q66.28438 278.41208 66.72188 278.81833Q67.175 279.22458 67.81563 279.22458Q68.56563 279.22458 69.09688 278.64645Q69.62813 278.06833 69.62813 277.13083Q69.62813 276.22458 69.1125 275.70895Q68.6125 275.1777 67.78438 275.1777Q67.28438 275.1777 66.8625 275.41208Q66.45625 275.64645 66.22188 276.00583L65.2375 275.88083L66.06563 271.47458L70.34688 271.47458L70.34688 272.47458L66.90938 272.47458L66.45625 274.78708Q67.22188 274.2402 68.06563 274.2402Q69.19063 274.2402 69.95625 275.02145Q70.7375 275.8027 70.7375 277.03708Q70.7375 278.19333 70.06563 279.0527Q69.2375 280.08395 67.81563 280.08395Q66.64375 280.08395 65.89375 279.4277Q65.15938 278.77145 65.05 277.69333Z" fill-rule="nonzero"/><path fill="#205aff" d="M62.01875 223.43666L60.971874 223.43666L60.971874 216.71791Q60.58125 217.07729 59.95625 217.45229Q59.346874 217.81166 58.8625 217.98354L58.8625 216.96791Q59.7375 216.54604 60.39375 215.96791Q61.065624 215.37416 61.346874 214.81166L62.01875 214.81166L62.01875 223.43666ZM65.05 219.20229Q65.05 217.67104 65.3625 216.74916Q65.675 215.81166 66.28438 215.31166Q66.90938 214.81166 67.84688 214.81166Q68.53438 214.81166 69.05 215.09291Q69.58125 215.37416 69.925 215.90541Q70.26875 216.42104 70.45625 217.17104Q70.64375 217.92104 70.64375 219.20229Q70.64375 220.71791 70.33125 221.63979Q70.03438 222.56166 69.40938 223.07729Q68.8 223.57729 67.84688 223.57729Q66.6125 223.57729 65.89375 222.68666Q65.05 221.62416 65.05 219.20229ZM66.12813 219.20229Q66.12813 221.31166 66.62813 222.01479Q67.12813 222.71791 67.84688 222.71791Q68.58125 222.71791 69.06563 222.01479Q69.56563 221.31166 69.56563 219.20229Q69.56563 217.07729 69.06563 216.38979Q68.58125 215.68666 67.83125 215.68666Q67.1125 215.68666 66.675 216.29604Q66.12813 217.07729 66.12813 219.20229Z" fill-rule="nonzero"/><path fill="#205aff" d="M62.01875 166.93L60.971874 166.93L60.971874 160.21124Q60.58125 160.57062 59.95625 160.94562Q59.346874 161.305 58.8625 161.47687L58.8625 160.46124Q59.7375 160.03937 60.39375 159.46124Q61.065624 158.8675 61.346874 158.305L62.01875 158.305L62.01875 166.93ZM65.05 164.68L66.15938 164.58624Q66.28438 165.39874 66.72188 165.805Q67.175 166.21124 67.81563 166.21124Q68.56563 166.21124 69.09688 165.63312Q69.62813 165.055 69.62813 164.1175Q69.62813 163.21124 69.1125 162.69562Q68.6125 162.16437 67.78438 162.16437Q67.28438 162.16437 66.8625 162.39874Q66.45625 162.63312 66.22188 162.9925L65.2375 162.8675L66.06563 158.46124L70.34688 158.46124L70.34688 159.46124L66.90938 159.46124L66.45625 161.77374Q67.22188 161.22687 68.06563 161.22687Q69.19063 161.22687 69.95625 162.00812Q70.7375 162.78937 70.7375 164.02374Q70.7375 165.18 70.06563 166.03937Q69.2375 167.07062 67.81563 167.07062Q66.64375 167.07062 65.89375 166.41437Q65.15938 165.75812 65.05 164.68Z" fill-rule="nonzero"/><path fill="#205aff" d="M63.596874 109.40771L63.596874 110.42333L57.909374 110.42333Q57.909374 110.04833 58.034374 109.68896Q58.253124 109.11083 58.721874 108.54833Q59.20625 107.98583 60.1125 107.25146Q61.51875 106.09521 62.003124 105.42333Q62.503124 104.75146 62.503124 104.15771Q62.503124 103.53271 62.05 103.11083Q61.596874 102.67333 60.878124 102.67333Q60.1125 102.67333 59.659374 103.12646Q59.20625 103.57958 59.190624 104.39208L58.1125 104.28271Q58.221874 103.06396 58.940624 102.43896Q59.675 101.79833 60.909374 101.79833Q62.14375 101.79833 62.8625 102.48583Q63.58125 103.17333 63.58125 104.18896Q63.58125 104.70458 63.3625 105.20458Q63.159374 105.68896 62.659374 106.25146Q62.175 106.79833 61.05 107.75146Q60.096874 108.54833 59.815624 108.84521Q59.55 109.12646 59.378124 109.40771L63.596874 109.40771ZM65.05 106.18896Q65.05 104.65771 65.3625 103.73583Q65.675 102.79833 66.28438 102.29833Q66.90938 101.79833 67.84688 101.79833Q68.53438 101.79833 69.05 102.07958Q69.58125 102.36083 69.925 102.89208Q70.26875 103.40771 70.45625 104.15771Q70.64375 104.90771 70.64375 106.18896Q70.64375 107.70458 70.33125 108.62646Q70.03438 109.54833 69.40938 110.06396Q68.8 110.56396 67.84688 110.56396Q66.6125 110.56396 65.89375 109.67333Q65.05 108.61083 65.05 106.18896ZM66.12813 106.18896Q66.12813 108.29833 66.62813 109.00146Q67.12813 109.70458 67.84688 109.70458Q68.58125 109.70458 69.06563 109.00146Q69.56563 108.29833 69.56563 106.18896Q69.56563 104.06396 69.06563 103.37646Q68.58125 102.67333 67.83125 102.67333Q67.1125 102.67333 66.675 103.28271Q66.12813 104.06396 66.12813 106.18896Z" fill-rule="nonzero"/><path fill="#205aff" d="M63.596874 52.901043L63.596874 53.916668L57.909374 53.916668Q57.909374 53.541668 58.034374 53.182293Q58.253124 52.604168 58.721874 52.041668Q59.20625 51.479168 60.1125 50.744793Q61.51875 49.588543 62.003124 48.916668Q62.503124 48.244793 62.503124 47.651043Q62.503124 47.026043 62.05 46.604168Q61.596874 46.166668 60.878124 46.166668Q60.1125 46.166668 59.659374 46.619793Q59.20625 47.072918 59.190624 47.885418L58.1125 47.776043Q58.221874 46.557293 58.940624 45.932293Q59.675 45.291668 60.909374 45.291668Q62.14375 45.291668 62.8625 45.979168Q63.58125 46.666668 63.58125 47.682293Q63.58125 48.197918 63.3625 48.697918Q63.159374 49.182293 62.659374 49.744793Q62.175 50.291668 61.05 51.244793Q60.096874 52.041668 59.815624 52.338543Q59.55 52.619793 59.378124 52.901043L63.596874 52.901043ZM65.05 51.666668L66.15938 51.572918Q66.28438 52.385418 66.72188 52.791668Q67.175 53.197918 67.81563 53.197918Q68.56563 53.197918 69.09688 52.619793Q69.62813 52.041668 69.62813 51.104168Q69.62813 50.197918 69.1125 49.682293Q68.6125 49.151043 67.78438 49.151043Q67.28438 49.151043 66.8625 49.385418Q66.45625 49.619793 66.22188 49.979168L65.2375 49.854168L66.06563 45.447918L70.34688 45.447918L70.34688 46.447918L66.90938 46.447918L66.45625 48.760418Q67.22188 48.213543 68.06563 48.213543Q69.19063 48.213543 69.95625 48.994793Q70.7375 49.776043 70.7375 51.010418Q70.7375 52.166668 70.06563 53.026043Q69.2375 54.057293 67.81563 54.057293Q66.64375 54.057293 65.89375 53.401043Q65.15938 52.744793 65.05 51.666668Z" fill-rule="nonzero"/><path fill="#999999" d="M528.95 332.21564Q528.95 330.6844 529.2625 329.7625Q529.575 328.825 530.1844 328.325Q530.8094 327.825 531.7469 327.825Q532.4344 327.825 532.95 328.10626Q533.48126 328.3875 533.825 328.91876Q534.16876 329.4344 534.35626 330.1844Q534.54376 330.9344 534.54376 332.21564Q534.54376 333.73126 534.23126 334.65314Q533.9344 335.575 533.3094 336.09064Q532.7 336.59064 531.7469 336.59064Q530.5125 336.59064 529.79376 335.7Q528.95 334.6375 528.95 332.21564ZM530.02814 332.21564Q530.02814 334.325 530.52814 335.02814Q531.02814 335.73126 531.7469 335.73126Q532.48126 335.73126 532.96564 335.02814Q533.46564 334.325 533.46564 332.21564Q533.46564 330.09064 532.96564 329.40314Q532.48126 328.7 531.73126 328.7Q531.0125 328.7 530.575 329.3094Q530.02814 330.09064 530.02814 332.21564Z" fill-rule="nonzero"/><path fill="#999999" d="M532.91876 265.81668L531.8719 265.81668L531.8719 259.09793Q531.48126 259.4573 530.85626 259.8323Q530.2469 260.19168 529.7625 260.36356L529.7625 259.34793Q530.6375 258.92606 531.29376 258.34793Q531.96564 257.75418 532.2469 257.19168L532.91876 257.19168L532.91876 265.81668ZM535.95 261.5823Q535.95 260.05106 536.2625 259.12918Q536.575 258.19168 537.1844 257.69168Q537.8094 257.19168 538.7469 257.19168Q539.4344 257.19168 539.95 257.47293Q540.48126 257.75418 540.825 258.28543Q541.16876 258.80106 541.35626 259.55106Q541.54376 260.30106 541.54376 261.5823Q541.54376 263.09793 541.23126 264.0198Q540.9344 264.94168 540.3094 265.4573Q539.7 265.9573 538.7469 265.9573Q537.5125 265.9573 536.79376 265.06668Q535.95 264.00418 535.95 261.5823ZM537.02814 261.5823Q537.02814 263.69168 537.52814 264.3948Q538.02814 265.09793 538.7469 265.09793Q539.48126 265.09793 539.96564 264.3948Q540.46564 263.69168 540.46564 261.5823Q540.46564 259.4573 539.96564 258.7698Q539.48126 258.06668 538.73126 258.06668Q538.0125 258.06668 537.575 258.67606Q537.02814 259.4573 537.02814 261.5823ZM542.95 261.5823Q542.95 260.05106 543.2625 259.12918Q543.575 258.19168 544.1844 257.69168Q544.8094 257.19168 545.7469 257.19168Q546.4344 257.19168 546.95 257.47293Q547.48126 257.75418 547.825 258.28543Q548.16876 258.80106 548.35626 259.55106Q548.54376 260.30106 548.54376 261.5823Q548.54376 263.09793 548.23126 264.0198Q547.9344 264.94168 547.3094 265.4573Q546.7 265.9573 545.7469 265.9573Q544.5125 265.9573 543.79376 265.06668Q542.95 264.00418 542.95 261.5823ZM544.02814 261.5823Q544.02814 263.69168 544.52814 264.3948Q545.02814 265.09793 545.7469 265.09793Q546.48126 265.09793 546.96564 264.3948Q547.46564 263.69168 547.46564 261.5823Q547.46564 259.4573 546.96564 258.7698Q546.48126 258.06668 545.73126 258.06668Q545.0125 258.06668 544.575 258.67606Q544.02814 259.4573 544.02814 261.5823Z" fill-rule="nonzero"/><path fill="#999999" d="M534.4969 194.16771L534.4969 195.18333L528.8094 195.18333Q528.8094 194.80833 528.9344 194.44896Q529.15314 193.87083 529.6219 193.30833Q530.10626 192.74583 531.0125 192.01146Q532.41876 190.85521 532.90314 190.18333Q533.40314 189.51146 533.40314 188.91771Q533.40314 188.29271 532.95 187.87083Q532.4969 187.43333 531.77814 187.43333Q531.0125 187.43333 530.5594 187.88646Q530.10626 188.33958 530.09064 189.15208L529.0125 189.04271Q529.1219 187.82396 529.84064 187.19896Q530.575 186.55833 531.8094 186.55833Q533.04376 186.55833 533.7625 187.24583Q534.48126 187.93333 534.48126 188.94896Q534.48126 189.46458 534.2625 189.96458Q534.0594 190.44896 533.5594 191.01146Q533.075 191.55833 531.95 192.51146Q530.9969 193.30833 530.71564 193.60521Q530.45 193.88646 530.27814 194.16771L534.4969 194.16771ZM535.95 190.94896Q535.95 189.41771 536.2625 188.49583Q536.575 187.55833 537.1844 187.05833Q537.8094 186.55833 538.7469 186.55833Q539.4344 186.55833 539.95 186.83958Q540.48126 187.12083 540.825 187.65208Q541.16876 188.16771 541.35626 188.91771Q541.54376 189.66771 541.54376 190.94896Q541.54376 192.46458 541.23126 193.38646Q540.9344 194.30833 540.3094 194.82396Q539.7 195.32396 538.7469 195.32396Q537.5125 195.32396 536.79376 194.43333Q535.95 193.37083 535.95 190.94896ZM537.02814 190.94896Q537.02814 193.05833 537.52814 193.76146Q538.02814 194.46458 538.7469 194.46458Q539.48126 194.46458 539.96564 193.76146Q540.46564 193.05833 540.46564 190.94896Q540.46564 188.82396 539.96564 188.13646Q539.48126 187.43333 538.73126 187.43333Q538.0125 187.43333 537.575 188.04271Q537.02814 188.82396 537.02814 190.94896ZM542.95 190.94896Q542.95 189.41771 543.2625 188.49583Q543.575 187.55833 544.1844 187.05833Q544.8094 186.55833 545.7469 186.55833Q546.4344 186.55833 546.95 186.83958Q547.48126 187.12083 547.825 187.65208Q548.16876 188.16771 548.35626 188.91771Q548.54376 189.66771 548.54376 190.94896Q548.54376 192.46458 548.23126 193.38646Q547.9344 194.30833 547.3094 194.82396Q546.7 195.32396 545.7469 195.32396Q544.5125 195.32396 543.79376 194.43333Q542.95 193.37083 542.95 190.94896ZM544.02814 190.94896Q544.02814 193.05833 544.52814 193.76146Q545.02814 194.46458 545.7469 194.46458Q546.48126 194.46458 546.96564 193.76146Q547.46564 193.05833 547.46564 190.94896Q547.46564 188.82396 546.96564 188.13646Q546.48126 187.43333 545.73126 187.43333Q545.0125 187.43333 544.575 188.04271Q544.02814 188.82396 544.02814 190.94896Z" fill-rule="nonzero"/><path fill="#999999" d="M528.95 122.28438L530.0125 122.14375Q530.1844 123.03438 530.6219 123.44063Q531.0594 123.83125 531.6844 123.83125Q532.4344 123.83125 532.95 123.31563Q533.46564 122.8 533.46564 122.03438Q533.46564 121.31563 532.98126 120.84688Q532.5125 120.3625 531.77814 120.3625Q531.48126 120.3625 531.02814 120.4875L531.15314 119.55Q531.2625 119.56563 531.325 119.56563Q531.9969 119.56563 532.52814 119.22188Q533.075 118.8625 533.075 118.12813Q533.075 117.55 532.6844 117.175Q532.29376 116.78438 531.66876 116.78438Q531.0594 116.78438 530.6375 117.175Q530.23126 117.56563 530.1219 118.33125L529.0594 118.14375Q529.2469 117.09688 529.9344 116.51875Q530.6219 115.925 531.6375 115.925Q532.34064 115.925 532.9344 116.2375Q533.52814 116.53438 533.84064 117.05Q534.15314 117.56563 534.15314 118.15938Q534.15314 118.70625 533.85626 119.175Q533.5594 119.62813 532.98126 119.89375Q533.73126 120.06563 534.15314 120.62813Q534.575 121.175 534.575 122.01875Q534.575 123.14375 533.7469 123.925Q532.9344 124.70625 531.6844 124.70625Q530.5594 124.70625 529.8094 124.03438Q529.0594 123.34688 528.95 122.28438ZM535.95 120.31563Q535.95 118.78438 536.2625 117.8625Q536.575 116.925 537.1844 116.425Q537.8094 115.925 538.7469 115.925Q539.4344 115.925 539.95 116.20625Q540.48126 116.4875 540.825 117.01875Q541.16876 117.53438 541.35626 118.28438Q541.54376 119.03438 541.54376 120.31563Q541.54376 121.83125 541.23126 122.75313Q540.9344 123.675 540.3094 124.19063Q539.7 124.69063 538.7469 124.69063Q537.5125 124.69063 536.79376 123.8Q535.95 122.7375 535.95 120.31563ZM537.02814 120.31563Q537.02814 122.425 537.52814 123.12813Q538.02814 123.83125 538.7469 123.83125Q539.48126 123.83125 539.96564 123.12813Q540.46564 122.425 540.46564 120.31563Q540.46564 118.19063 539.96564 117.50313Q539.48126 116.8 538.73126 116.8Q538.0125 116.8 537.575 117.40938Q537.02814 118.19063 537.02814 120.31563ZM542.95 120.31563Q542.95 118.78438 543.2625 117.8625Q543.575 116.925 544.1844 116.425Q544.8094 115.925 545.7469 115.925Q546.4344 115.925 546.95 116.20625Q547.48126 116.4875 547.825 117.01875Q548.16876 117.53438 548.35626 118.28438Q548.54376 119.03438 548.54376 120.31563Q548.54376 121.83125 548.23126 122.75313Q547.9344 123.675 547.3094 124.19063Q546.7 124.69063 545.7469 124.69063Q544.5125 124.69063 543.79376 123.8Q542.95 122.7375 542.95 120.31563ZM544.02814 120.31563Q544.02814 122.425 544.52814 123.12813Q545.02814 123.83125 545.7469 123.83125Q546.48126 123.83125 546.96564 123.12813Q547.46564 122.425 547.46564 120.31563Q547.46564 118.19063 546.96564 117.50313Q546.48126 116.8 545.73126 116.8Q545.0125 116.8 544.575 117.40938Q544.02814 118.19063 544.02814 120.31563Z" fill-rule="nonzero"/><path fill="#999999" d="M532.325 53.916668L532.325 51.854168L528.60626 51.854168L528.60626 50.885418L532.52814 45.322918L533.3875 45.322918L533.3875 50.885418L534.54376 50.885418L534.54376 51.854168L533.3875 51.854168L533.3875 53.916668L532.325 53.916668ZM532.325 50.885418L532.325 47.026043L529.6375 50.885418L532.325 50.885418ZM535.95 49.682293Q535.95 48.151043 536.2625 47.229168Q536.575 46.291668 537.1844 45.791668Q537.8094 45.291668 538.7469 45.291668Q539.4344 45.291668 539.95 45.572918Q540.48126 45.854168 540.825 46.385418Q541.16876 46.901043 541.35626 47.651043Q541.54376 48.401043 541.54376 49.682293Q541.54376 51.197918 541.23126 52.119793Q540.9344 53.041668 540.3094 53.557293Q539.7 54.057293 538.7469 54.057293Q537.5125 54.057293 536.79376 53.166668Q535.95 52.104168 535.95 49.682293ZM537.02814 49.682293Q537.02814 51.791668 537.52814 52.494793Q538.02814 53.197918 538.7469 53.197918Q539.48126 53.197918 539.96564 52.494793Q540.46564 51.791668 540.46564 49.682293Q540.46564 47.557293 539.96564 46.869793Q539.48126 46.166668 538.73126 46.166668Q538.0125 46.166668 537.575 46.776043Q537.02814 47.557293 537.02814 49.682293ZM542.95 49.682293Q542.95 48.151043 543.2625 47.229168Q543.575 46.291668 544.1844 45.791668Q544.8094 45.291668 545.7469 45.291668Q546.4344 45.291668 546.95 45.572918Q547.48126 45.854168 547.825 46.385418Q548.16876 46.901043 548.35626 47.651043Q548.54376 48.401043 548.54376 49.682293Q548.54376 51.197918 548.23126 52.119793Q547.9344 53.041668 547.3094 53.557293Q546.7 54.057293 545.7469 54.057293Q544.5125 54.057293 543.79376 53.166668Q542.95 52.104168 542.95 49.682293ZM544.02814 49.682293Q544.02814 51.791668 544.52814 52.494793Q545.02814 53.197918 545.7469 53.197918Q546.48126 53.197918 546.96564 52.494793Q547.46564 51.791668 547.46564 49.682293Q547.46564 47.557293 546.96564 46.869793Q546.48126 46.166668 545.73126 46.166668Q545.0125 46.166668 544.575 46.776043Q544.02814 47.557293 544.02814 49.682293Z" fill-rule="nonzero"/><path fill="#000000" d="M149.06903 349.45L149.06903 340.85626L150.20966 340.85626L150.20966 348.4344L154.44403 348.4344L154.44403 349.45L149.06903 349.45ZM160.0534 348.6844Q159.45966 349.1844 158.91278 349.3875Q158.38153 349.59064 157.75653 349.59064Q156.72528 349.59064 156.1784 349.09064Q155.63153 348.59064 155.63153 347.8094Q155.63153 347.35626 155.83466 346.98126Q156.03778 346.59064 156.38153 346.3719Q156.72528 346.1375 157.14716 346.02814Q157.44403 345.9344 158.08466 345.85626Q159.35028 345.71564 159.95966 345.4969Q159.95966 345.27814 159.95966 345.23126Q159.95966 344.575 159.66278 344.3094Q159.25653 343.96564 158.45966 343.96564Q157.72528 343.96564 157.3659 344.23126Q157.00653 344.48126 156.83466 345.1375L155.8034 344.9969Q155.94403 344.34064 156.27216 343.9344Q156.60028 343.52814 157.20966 343.3094Q157.81903 343.09064 158.6159 343.09064Q159.41278 343.09064 159.91278 343.27814Q160.41278 343.46564 160.64716 343.7469Q160.88153 344.02814 160.97528 344.46564Q161.02216 344.73126 161.02216 345.4344L161.02216 346.84064Q161.02216 348.3094 161.08466 348.7Q161.16278 349.09064 161.3659 349.45L160.25653 349.45Q160.10028 349.1219 160.0534 348.6844ZM159.95966 346.325Q159.38153 346.5594 158.2409 346.73126Q157.58466 346.825 157.31903 346.95Q157.0534 347.0594 156.89716 347.27814Q156.75653 347.4969 156.75653 347.77814Q156.75653 348.2 157.06903 348.48126Q157.39716 348.7625 158.00653 348.7625Q158.6159 348.7625 159.08466 348.4969Q159.56903 348.23126 159.78778 347.7625Q159.95966 347.40314 159.95966 346.71564L159.95966 346.325ZM162.9909 351.84064L162.9909 343.23126L163.94403 343.23126L163.94403 344.02814Q164.28778 343.5594 164.70966 343.325Q165.14716 343.09064 165.75653 343.09064Q166.5534 343.09064 167.16278 343.4969Q167.77216 343.90314 168.06903 344.65314Q168.38153 345.40314 168.38153 346.29376Q168.38153 347.2469 168.03778 348.0125Q167.70966 348.77814 167.0534 349.1844Q166.39716 349.59064 165.6784 349.59064Q165.14716 349.59064 164.72528 349.3719Q164.3034 349.1375 164.03778 348.8094L164.03778 351.84064L162.9909 351.84064ZM163.94403 346.3719Q163.94403 347.575 164.4284 348.15314Q164.91278 348.71564 165.60028 348.71564Q166.3034 348.71564 166.8034 348.1219Q167.3034 347.52814 167.3034 346.27814Q167.3034 345.09064 166.81903 344.5125Q166.33466 343.91876 165.64716 343.91876Q164.97528 343.91876 164.45966 344.54376Q163.94403 345.16876 163.94403 346.3719ZM172.28778 348.5125L172.44403 349.4344Q171.9909 349.52814 171.64716 349.52814Q171.06903 349.52814 170.75653 349.35626Q170.44403 349.16876 170.3034 348.8719Q170.1784 348.575 170.1784 347.6219L170.1784 344.04376L169.41278 344.04376L169.41278 343.23126L170.1784 343.23126L170.1784 341.6844L171.22528 341.0594L171.22528 343.23126L172.28778 343.23126L172.28778 344.04376L171.22528 344.04376L171.22528 347.6844Q171.22528 348.1375 171.27216 348.2625Q171.33466 348.3875 171.45966 348.46564Q171.58466 348.54376 171.81903 348.54376Q172.00653 348.54376 172.28778 348.5125ZM172.60028 346.34064Q172.60028 344.60626 173.5534 343.77814Q174.35028 343.09064 175.50653 343.09064Q176.78778 343.09064 177.60028 343.9344Q178.4284 344.7625 178.4284 346.2469Q178.4284 347.45 178.06903 348.1375Q177.70966 348.825 177.00653 349.21564Q176.31903 349.59064 175.50653 349.59064Q174.20966 349.59064 173.39716 348.7625Q172.60028 347.91876 172.60028 346.34064ZM173.6784 346.34064Q173.6784 347.52814 174.19403 348.1219Q174.72528 348.71564 175.50653 348.71564Q176.3034 348.71564 176.81903 348.1219Q177.33466 347.52814 177.33466 346.3094Q177.33466 345.15314 176.8034 344.5594Q176.28778 343.96564 175.50653 343.96564Q174.72528 343.96564 174.19403 344.5594Q173.6784 345.1375 173.6784 346.34064ZM179.9909 351.84064L179.9909 343.23126L180.94403 343.23126L180.94403 344.02814Q181.28778 343.5594 181.70966 343.325Q182.14716 343.09064 182.75653 343.09064Q183.5534 343.09064 184.16278 343.4969Q184.77216 343.90314 185.06903 344.65314Q185.38153 345.40314 185.38153 346.29376Q185.38153 347.2469 185.03778 348.0125Q184.70966 348.77814 184.0534 349.1844Q183.39716 349.59064 182.6784 349.59064Q182.14716 349.59064 181.72528 349.3719Q181.3034 349.1375 181.03778 348.8094L181.03778 351.84064L179.9909 351.84064ZM180.94403 346.3719Q180.94403 347.575 181.4284 348.15314Q181.91278 348.71564 182.60028 348.71564Q183.3034 348.71564 183.8034 348.1219Q184.3034 347.52814 184.3034 346.27814Q184.3034 345.09064 183.81903 344.5125Q183.33466 343.91876 182.64716 343.91876Q181.97528 343.91876 181.45966 344.54376Q180.94403 345.16876 180.94403 346.3719Z" fill-rule="nonzero"/><path fill="#000000" d="M290.5625 346.4344L291.6875 346.73126Q291.32812 348.1219 290.40625 348.85626Q289.48438 349.59064 288.14062 349.59064Q286.75 349.59064 285.875 349.02814Q285.0 348.46564 284.54688 347.40314Q284.09375 346.325 284.09375 345.09064Q284.09375 343.7469 284.60938 342.7469Q285.125 341.7469 286.0625 341.23126Q287.01562 340.71564 288.15625 340.71564Q289.4375 340.71564 290.3125 341.3719Q291.20312 342.02814 291.54688 343.21564L290.42188 343.48126Q290.125 342.54376 289.54688 342.1219Q288.98438 341.6844 288.125 341.6844Q287.14062 341.6844 286.46875 342.16876Q285.8125 342.6375 285.53125 343.4344Q285.26562 344.23126 285.26562 345.09064Q285.26562 346.1844 285.57812 346.9969Q285.90625 347.8094 286.57812 348.21564Q287.25 348.6219 288.04688 348.6219Q289.0 348.6219 289.65625 348.075Q290.32812 347.52814 290.5625 346.4344ZM293.26562 349.45L293.26562 340.85626L294.32812 340.85626L294.32812 349.45L293.26562 349.45ZM295.90625 346.34064Q295.90625 344.60626 296.85938 343.77814Q297.65625 343.09064 298.8125 343.09064Q300.09375 343.09064 300.90625 343.9344Q301.73438 344.7625 301.73438 346.2469Q301.73438 347.45 301.375 348.1375Q301.01562 348.825 300.3125 349.21564Q299.625 349.59064 298.8125 349.59064Q297.51562 349.59064 296.70312 348.7625Q295.90625 347.91876 295.90625 346.34064ZM296.98438 346.34064Q296.98438 347.52814 297.5 348.1219Q298.03125 348.71564 298.8125 348.71564Q299.60938 348.71564 300.125 348.1219Q300.64062 347.52814 300.64062 346.3094Q300.64062 345.15314 300.10938 344.5594Q299.59375 343.96564 298.8125 343.96564Q298.03125 343.96564 297.5 344.5594Q296.98438 345.1375 296.98438 346.34064ZM307.375 349.45L307.375 348.52814Q306.64062 349.59064 305.39062 349.59064Q304.84375 349.59064 304.35938 349.3875Q303.89062 349.16876 303.65625 348.85626Q303.42188 348.52814 303.32812 348.0594Q303.26562 347.7625 303.26562 347.075L303.26562 343.23126L304.32812 343.23126L304.32812 346.6844Q304.32812 347.4969 304.39062 347.79376Q304.48438 348.2 304.79688 348.45Q305.125 348.6844 305.60938 348.6844Q306.07812 348.6844 306.48438 348.45Q306.90625 348.2 307.07812 347.77814Q307.26562 347.35626 307.26562 346.5594L307.26562 343.23126L308.3125 343.23126L308.3125 349.45L307.375 349.45ZM314.32812 349.45L314.32812 348.66876Q313.73438 349.59064 312.59375 349.59064Q311.84375 349.59064 311.21875 349.1844Q310.59375 348.7625 310.25 348.02814Q309.90625 347.29376 309.90625 346.34064Q309.90625 345.41876 310.21875 344.65314Q310.53125 343.8875 311.15625 343.4969Q311.78125 343.09064 312.54688 343.09064Q313.10938 343.09064 313.54688 343.325Q313.98438 343.5594 314.26562 343.9344L314.26562 340.85626L315.3125 340.85626L315.3125 349.45L314.32812 349.45ZM311.0 346.34064Q311.0 347.54376 311.5 348.1375Q312.0 348.71564 312.6875 348.71564Q313.375 348.71564 313.85938 348.15314Q314.34375 347.59064 314.34375 346.4344Q314.34375 345.15314 313.84375 344.5594Q313.35938 343.96564 312.64062 343.96564Q311.9375 343.96564 311.46875 344.54376Q311.0 345.10626 311.0 346.34064Z" fill-rule="nonzero"/><path fill="#000000" d="M378.36847 346.4344L379.49347 346.73126Q379.1341 348.1219 378.21222 348.85626Q377.29034 349.59064 375.9466 349.59064Q374.55597 349.59064 373.68097 349.02814Q372.80597 348.46564 372.35284 347.40314Q371.89972 346.325 371.89972 345.09064Q371.89972 343.7469 372.41534 342.7469Q372.93097 341.7469 373.86847 341.23126Q374.8216 340.71564 375.96222 340.71564Q377.24347 340.71564 378.11847 341.3719Q379.0091 342.02814 379.35284 343.21564L378.22784 343.48126Q377.93097 342.54376 377.35284 342.1219Q376.79034 341.6844 375.93097 341.6844Q374.9466 341.6844 374.27472 342.16876Q373.61847 342.6375 373.33722 343.4344Q373.0716 344.23126 373.0716 345.09064Q373.0716 346.1844 373.3841 346.9969Q373.71222 347.8094 374.3841 348.21564Q375.05597 348.6219 375.85284 348.6219Q376.80597 348.6219 377.46222 348.075Q378.1341 347.52814 378.36847 346.4344ZM381.0716 349.45L381.0716 340.85626L382.1341 340.85626L382.1341 349.45L381.0716 349.45ZM383.71222 346.34064Q383.71222 344.60626 384.66534 343.77814Q385.46222 343.09064 386.61847 343.09064Q387.89972 343.09064 388.71222 343.9344Q389.54034 344.7625 389.54034 346.2469Q389.54034 347.45 389.18097 348.1375Q388.8216 348.825 388.11847 349.21564Q387.43097 349.59064 386.61847 349.59064Q385.3216 349.59064 384.5091 348.7625Q383.71222 347.91876 383.71222 346.34064ZM384.79034 346.34064Q384.79034 347.52814 385.30597 348.1219Q385.83722 348.71564 386.61847 348.71564Q387.41534 348.71564 387.93097 348.1219Q388.4466 347.52814 388.4466 346.3094Q388.4466 345.15314 387.91534 344.5594Q387.39972 343.96564 386.61847 343.96564Q385.83722 343.96564 385.30597 344.5594Q384.79034 345.1375 384.79034 346.34064ZM395.18097 349.45L395.18097 348.52814Q394.4466 349.59064 393.1966 349.59064Q392.64972 349.59064 392.16534 349.3875Q391.6966 349.16876 391.46222 348.85626Q391.22784 348.52814 391.1341 348.0594Q391.0716 347.7625 391.0716 347.075L391.0716 343.23126L392.1341 343.23126L392.1341 346.6844Q392.1341 347.4969 392.1966 347.79376Q392.29034 348.2 392.60284 348.45Q392.93097 348.6844 393.41534 348.6844Q393.8841 348.6844 394.29034 348.45Q394.71222 348.2 394.8841 347.77814Q395.0716 347.35626 395.0716 346.5594L395.0716 343.23126L396.11847 343.23126L396.11847 349.45L395.18097 349.45ZM402.1341 349.45L402.1341 348.66876Q401.54034 349.59064 400.39972 349.59064Q399.64972 349.59064 399.02472 349.1844Q398.39972 348.7625 398.05597 348.02814Q397.71222 347.29376 397.71222 346.34064Q397.71222 345.41876 398.02472 344.65314Q398.33722 343.8875 398.96222 343.4969Q399.58722 343.09064 400.35284 343.09064Q400.91534 343.09064 401.35284 343.325Q401.79034 343.5594 402.0716 343.9344L402.0716 340.85626L403.11847 340.85626L403.11847 349.45L402.1341 349.45ZM398.80597 346.34064Q398.80597 347.54376 399.30597 348.1375Q399.80597 348.71564 400.49347 348.71564Q401.18097 348.71564 401.66534 348.15314Q402.14972 347.59064 402.14972 346.4344Q402.14972 345.15314 401.64972 344.5594Q401.16534 343.96564 400.4466 343.96564Q399.74347 343.96564 399.27472 344.54376Q398.80597 345.10626 398.80597 346.34064ZM410.11847 351.98126Q409.24347 350.8719 408.6341 349.40314Q408.04034 347.91876 408.04034 346.34064Q408.04034 344.95 408.47784 343.66876Q409.0091 342.1844 410.11847 340.71564L410.86847 340.71564Q410.16534 341.9344 409.93097 342.45Q409.5716 343.2625 409.36847 344.1375Q409.11847 345.23126 409.11847 346.34064Q409.11847 349.16876 410.86847 351.98126L410.11847 351.98126ZM416.16534 347.16876L417.1966 347.3094Q417.02472 348.3719 416.3216 348.98126Q415.61847 349.59064 414.60284 349.59064Q413.3216 349.59064 412.54034 348.7625Q411.77472 347.91876 411.77472 346.35626Q411.77472 345.35626 412.10284 344.60626Q412.4466 343.84064 413.11847 343.46564Q413.80597 343.09064 414.61847 343.09064Q415.61847 343.09064 416.2591 343.60626Q416.91534 344.10626 417.10284 345.0594L416.0716 345.21564Q415.93097 344.59064 415.55597 344.27814Q415.18097 343.95 414.64972 343.95Q413.85284 343.95 413.35284 344.52814Q412.85284 345.09064 412.85284 346.325Q412.85284 347.59064 413.33722 348.15314Q413.8216 348.71564 414.58722 348.71564Q415.21222 348.71564 415.61847 348.34064Q416.04034 347.96564 416.16534 347.16876ZM417.71222 346.34064Q417.71222 344.60626 418.66534 343.77814Q419.46222 343.09064 420.61847 343.09064Q421.89972 343.09064 422.71222 343.9344Q423.54034 344.7625 423.54034 346.2469Q423.54034 347.45 423.18097 348.1375Q422.8216 348.825 422.11847 349.21564Q421.43097 349.59064 420.61847 349.59064Q419.3216 349.59064 418.5091 348.7625Q417.71222 347.91876 417.71222 346.34064ZM418.79034 346.34064Q418.79034 347.52814 419.30597 348.1219Q419.83722 348.71564 420.61847 348.71564Q421.41534 348.71564 421.93097 348.1219Q422.4466 347.52814 422.4466 346.3094Q422.4466 345.15314 421.91534 344.5594Q421.39972 343.96564 420.61847 343.96564Q419.83722 343.96564 419.30597 344.5594Q418.79034 345.1375 418.79034 346.34064ZM424.68097 347.59064L425.71222 347.4344Q425.80597 348.0594 426.1966 348.3875Q426.60284 348.71564 427.33722 348.71564Q428.05597 348.71564 428.39972 348.4344Q428.7591 348.1375 428.7591 347.73126Q428.7591 347.3719 428.4466 347.16876Q428.22784 347.02814 427.36847 346.8094Q426.21222 346.5125 425.7591 346.3094Q425.3216 346.09064 425.08722 345.71564Q424.85284 345.34064 424.85284 344.8719Q424.85284 344.46564 425.04034 344.10626Q425.22784 343.7469 425.55597 343.5125Q425.80597 343.34064 426.22784 343.21564Q426.64972 343.09064 427.14972 343.09064Q427.86847 343.09064 428.41534 343.3094Q428.97784 343.5125 429.24347 343.8719Q429.5091 344.23126 429.60284 344.825L428.5716 344.96564Q428.5091 344.4969 428.16534 344.23126Q427.83722 343.95 427.21222 343.95Q426.49347 343.95 426.18097 344.2Q425.86847 344.4344 425.86847 344.7625Q425.86847 344.96564 425.99347 345.1219Q426.1341 345.29376 426.39972 345.40314Q426.55597 345.46564 427.33722 345.66876Q428.46222 345.98126 428.89972 346.16876Q429.33722 346.35626 429.58722 346.71564Q429.83722 347.075 429.83722 347.6219Q429.83722 348.15314 429.52472 348.6219Q429.22784 349.075 428.64972 349.34064Q428.0716 349.59064 427.33722 349.59064Q426.11847 349.59064 425.47784 349.09064Q424.85284 348.575 424.68097 347.59064ZM434.39972 348.5125L434.55597 349.4344Q434.10284 349.52814 433.7591 349.52814Q433.18097 349.52814 432.86847 349.35626Q432.55597 349.16876 432.41534 348.8719Q432.29034 348.575 432.29034 347.6219L432.29034 344.04376L431.52472 344.04376L431.52472 343.23126L432.29034 343.23126L432.29034 341.6844L433.33722 341.0594L433.33722 343.23126L434.39972 343.23126L434.39972 344.04376L433.33722 344.04376L433.33722 347.6844Q433.33722 348.1375 433.3841 348.2625Q433.4466 348.3875 433.5716 348.46564Q433.6966 348.54376 433.93097 348.54376Q434.11847 348.54376 434.39972 348.5125ZM437.71222 346.34064Q437.71222 344.60626 438.66534 343.77814Q439.46222 343.09064 440.61847 343.09064Q441.89972 343.09064 442.71222 343.9344Q443.54034 344.7625 443.54034 346.2469Q443.54034 347.45 443.18097 348.1375Q442.8216 348.825 442.11847 349.21564Q441.43097 349.59064 440.61847 349.59064Q439.3216 349.59064 438.5091 348.7625Q437.71222 347.91876 437.71222 346.34064ZM438.79034 346.34064Q438.79034 347.52814 439.30597 348.1219Q439.83722 348.71564 440.61847 348.71564Q441.41534 348.71564 441.93097 348.1219Q442.4466 347.52814 442.4466 346.3094Q442.4466 345.15314 441.91534 344.5594Q441.39972 343.96564 440.61847 343.96564Q439.83722 343.96564 439.30597 344.5594Q438.79034 345.1375 438.79034 346.34064ZM445.10284 351.84064L445.10284 343.23126L446.05597 343.23126L446.05597 344.02814Q446.39972 343.5594 446.8216 343.325Q447.2591 343.09064 447.86847 343.09064Q448.66534 343.09064 449.27472 343.4969Q449.8841 343.90314 450.18097 344.65314Q450.49347 345.40314 450.49347 346.29376Q450.49347 347.2469 450.14972 348.0125Q449.8216 348.77814 449.16534 349.1844Q448.5091 349.59064 447.79034 349.59064Q447.2591 349.59064 446.83722 349.3719Q446.41534 349.1375 446.14972 348.8094L446.14972 351.84064L445.10284 351.84064ZM446.05597 346.3719Q446.05597 347.575 446.54034 348.15314Q447.02472 348.71564 447.71222 348.71564Q448.41534 348.71564 448.91534 348.1219Q449.41534 347.52814 449.41534 346.27814Q449.41534 345.09064 448.93097 344.5125Q448.4466 343.91876 447.7591 343.91876Q447.08722 343.91876 446.5716 344.54376Q446.05597 345.16876 446.05597 346.3719ZM454.39972 348.5125L454.55597 349.4344Q454.10284 349.52814 453.7591 349.52814Q453.18097 349.52814 452.86847 349.35626Q452.55597 349.16876 452.41534 348.8719Q452.29034 348.575 452.29034 347.6219L452.29034 344.04376L451.52472 344.04376L451.52472 343.23126L452.29034 343.23126L452.29034 341.6844L453.33722 341.0594L453.33722 343.23126L454.39972 343.23126L454.39972 344.04376L453.33722 344.04376L453.33722 347.6844Q453.33722 348.1375 453.3841 348.2625Q453.4466 348.3875 453.5716 348.46564Q453.6966 348.54376 453.93097 348.54376Q454.11847 348.54376 454.39972 348.5125ZM455.10284 342.075L455.10284 340.85626L456.16534 340.85626L456.16534 342.075L455.10284 342.075ZM455.10284 349.45L455.10284 343.23126L456.16534 343.23126L456.16534 349.45L455.10284 349.45ZM458.10284 349.45L458.10284 343.23126L459.04034 343.23126L459.04034 344.10626Q459.33722 343.6375 459.8216 343.3719Q460.30597 343.09064 460.93097 343.09064Q461.61847 343.09064 462.05597 343.3719Q462.5091 343.65314 462.68097 344.16876Q463.43097 343.09064 464.60284 343.09064Q465.54034 343.09064 466.02472 343.60626Q466.52472 344.10626 466.52472 345.1844L466.52472 349.45L465.47784 349.45L465.47784 345.52814Q465.47784 344.90314 465.36847 344.6219Q465.27472 344.34064 465.0091 344.16876Q464.74347 343.9969 464.36847 343.9969Q463.71222 343.9969 463.27472 344.4344Q462.85284 344.8719 462.85284 345.84064L462.85284 349.45L461.79034 349.45L461.79034 345.40314Q461.79034 344.7 461.52472 344.35626Q461.27472 343.9969 460.6966 343.9969Q460.24347 343.9969 459.86847 344.23126Q459.49347 344.46564 459.3216 344.91876Q459.14972 345.3719 459.14972 346.21564L459.14972 349.45L458.10284 349.45ZM469.10284 342.075L469.10284 340.85626L470.16534 340.85626L470.16534 342.075L469.10284 342.075ZM469.10284 349.45L469.10284 343.23126L470.16534 343.23126L470.16534 349.45L469.10284 349.45ZM471.54034 349.45L471.54034 348.59064L475.5091 344.04376Q474.8216 344.075 474.30597 344.075L471.77472 344.075L471.77472 343.23126L476.86847 343.23126L476.86847 343.91876L473.49347 347.8719L472.83722 348.59064Q473.55597 348.54376 474.16534 348.54376L477.05597 348.54376L477.05597 349.45L471.54034 349.45ZM481.35284 347.45L482.4466 347.575Q482.1966 348.52814 481.49347 349.0594Q480.79034 349.59064 479.71222 349.59064Q478.35284 349.59064 477.54034 348.7469Q476.74347 347.90314 476.74347 346.3875Q476.74347 344.825 477.55597 343.96564Q478.36847 343.09064 479.64972 343.09064Q480.89972 343.09064 481.68097 343.9344Q482.47784 344.77814 482.47784 346.325Q482.47784 346.41876 482.47784 346.60626L477.83722 346.60626Q477.89972 347.6375 478.41534 348.1844Q478.93097 348.71564 479.71222 348.71564Q480.29034 348.71564 480.6966 348.41876Q481.11847 348.10626 481.35284 347.45ZM477.89972 345.7469L481.36847 345.7469Q481.30597 344.95 480.97784 344.5594Q480.46222 343.95 479.66534 343.95Q478.93097 343.95 478.43097 344.4344Q477.9466 344.91876 477.89972 345.7469ZM488.1341 349.45L488.1341 348.66876Q487.54034 349.59064 486.39972 349.59064Q485.64972 349.59064 485.02472 349.1844Q484.39972 348.7625 484.05597 348.02814Q483.71222 347.29376 483.71222 346.34064Q483.71222 345.41876 484.02472 344.65314Q484.33722 343.8875 484.96222 343.4969Q485.58722 343.09064 486.35284 343.09064Q486.91534 343.09064 487.35284 343.325Q487.79034 343.5594 488.0716 343.9344L488.0716 340.85626L489.11847 340.85626L489.11847 349.45L488.1341 349.45ZM484.80597 346.34064Q484.80597 347.54376 485.30597 348.1375Q485.80597 348.71564 486.49347 348.71564Q487.18097 348.71564 487.66534 348.15314Q488.14972 347.59064 488.14972 346.4344Q488.14972 345.15314 487.64972 344.5594Q487.16534 343.96564 486.4466 343.96564Q485.74347 343.96564 485.27472 344.54376Q484.80597 345.10626 484.80597 346.34064ZM491.79034 351.98126L491.04034 351.98126Q492.79034 349.16876 492.79034 346.34064Q492.79034 345.2469 492.54034 344.15314Q492.33722 343.27814 491.97784 342.46564Q491.74347 341.95 491.04034 340.71564L491.79034 340.71564Q492.8841 342.1844 493.41534 343.66876Q493.86847 344.95 493.86847 346.34064Q493.86847 347.91876 493.2591 349.40314Q492.64972 350.8719 491.79034 351.98126Z" fill-rule="nonzero"/><path fill="#205aff" d="M300.63672 81.55C300.63672 80.99772 301.08444 80.55 301.63672 80.55L311.63672 80.55C312.189 80.55 312.63672 80.99772 312.63672 81.55L312.63672 91.55C312.63672 92.10229 312.189 92.55 311.63672 92.55L301.63672 92.55C301.08444 92.55 300.63672 92.10229 300.63672 91.55Z" fill-rule="nonzero"/><path fill="#1a1a1a" d="M327.69922 87.53438L328.82422 87.83125Q328.46484 89.22188 327.54297 89.95625Q326.6211 90.69063 325.27734 90.69063Q323.88672 90.69063 323.01172 90.12813Q322.13672 89.56563 321.6836 88.50313Q321.23047 87.425 321.23047 86.19063Q321.23047 84.84688 321.7461 83.84688Q322.26172 82.84688 323.19922 82.33125Q324.15234 81.81563 325.29297 81.81563Q326.57422 81.81563 327.44922 82.47188Q328.33984 83.12813 328.6836 84.31563L327.5586 84.58125Q327.26172 83.64375 326.6836 83.22188Q326.1211 82.78438 325.26172 82.78438Q324.27734 82.78438 323.60547 83.26875Q322.94922 83.7375 322.66797 84.53438Q322.40234 85.33125 322.40234 86.19063Q322.40234 87.28438 322.71484 88.09688Q323.04297 88.90938 323.71484 89.31563Q324.38672 89.72188 325.1836 89.72188Q326.13672 89.72188 326.79297 89.175Q327.46484 88.62813 327.69922 87.53438ZM330.04297 87.44063Q330.04297 85.70625 330.9961 84.87813Q331.79297 84.19063 332.94922 84.19063Q334.23047 84.19063 335.04297 85.03438Q335.8711 85.8625 335.8711 87.34688Q335.8711 88.55 335.51172 89.2375Q335.15234 89.925 334.44922 90.31563Q333.76172 90.69063 332.94922 90.69063Q331.65234 90.69063 330.83984 89.8625Q330.04297 89.01875 330.04297 87.44063ZM331.1211 87.44063Q331.1211 88.62813 331.63672 89.22188Q332.16797 89.81563 332.94922 89.81563Q333.7461 89.81563 334.26172 89.22188Q334.77734 88.62813 334.77734 87.40938Q334.77734 86.25313 334.2461 85.65938Q333.73047 85.06563 332.94922 85.06563Q332.16797 85.06563 331.63672 85.65938Q331.1211 86.2375 331.1211 87.44063ZM337.01172 88.69063L338.04297 88.53438Q338.13672 89.15938 338.52734 89.4875Q338.9336 89.81563 339.66797 89.81563Q340.38672 89.81563 340.73047 89.53438Q341.08984 89.2375 341.08984 88.83125Q341.08984 88.47188 340.77734 88.26875Q340.5586 88.12813 339.69922 87.90938Q338.54297 87.6125 338.08984 87.40938Q337.65234 87.19063 337.41797 86.81563Q337.1836 86.44063 337.1836 85.97188Q337.1836 85.56563 337.3711 85.20625Q337.5586 84.84688 337.88672 84.6125Q338.13672 84.44063 338.5586 84.31563Q338.98047 84.19063 339.48047 84.19063Q340.19922 84.19063 340.7461 84.40938Q341.3086 84.6125 341.57422 84.97188Q341.83984 85.33125 341.9336 85.925L340.90234 86.06563Q340.83984 85.59688 340.4961 85.33125Q340.16797 85.05 339.54297 85.05Q338.82422 85.05 338.51172 85.3Q338.19922 85.53438 338.19922 85.8625Q338.19922 86.06563 338.32422 86.22188Q338.46484 86.39375 338.73047 86.50313Q338.88672 86.56563 339.66797 86.76875Q340.79297 87.08125 341.23047 87.26875Q341.66797 87.45625 341.91797 87.81563Q342.16797 88.175 342.16797 88.72188Q342.16797 89.25313 341.85547 89.72188Q341.5586 90.175 340.98047 90.44063Q340.40234 90.69063 339.66797 90.69063Q338.44922 90.69063 337.8086 90.19063Q337.1836 89.675 337.01172 88.69063ZM346.73047 89.6125L346.88672 90.53438Q346.4336 90.62813 346.08984 90.62813Q345.51172 90.62813 345.19922 90.45625Q344.88672 90.26875 344.7461 89.97188Q344.6211 89.675 344.6211 88.72188L344.6211 85.14375L343.85547 85.14375L343.85547 84.33125L344.6211 84.33125L344.6211 82.78438L345.66797 82.15938L345.66797 84.33125L346.73047 84.33125L346.73047 85.14375L345.66797 85.14375L345.66797 88.78438Q345.66797 89.2375 345.71484 89.3625Q345.77734 89.4875 345.90234 89.56563Q346.02734 89.64375 346.26172 89.64375Q346.44922 89.64375 346.73047 89.6125ZM350.44922 92.94063L350.44922 81.95625L352.77734 81.95625L352.77734 82.83125L351.51172 82.83125L351.51172 92.06563L352.77734 92.06563L352.77734 92.94063L350.44922 92.94063ZM355.6211 91.78438L355.6211 90.7375Q354.83984 90.62813 354.33984 90.37813Q353.83984 90.12813 353.48047 89.56563Q353.1211 88.9875 353.0586 88.15938L354.1211 87.97188Q354.2461 88.81563 354.5586 89.20625Q355.01172 89.76875 355.6211 89.84688L355.6211 86.4875Q354.98047 86.3625 354.29297 85.97188Q353.79297 85.69063 353.51172 85.20625Q353.2461 84.70625 353.2461 84.06563Q353.2461 82.94063 354.04297 82.25313Q354.57422 81.78438 355.6211 81.675L355.6211 81.175L356.2461 81.175L356.2461 81.675Q357.16797 81.75313 357.69922 82.20625Q358.40234 82.78438 358.54297 83.78438L357.44922 83.95625Q357.35547 83.33125 357.0586 83.00313Q356.76172 82.675 356.2461 82.56563L356.2461 85.59688Q357.04297 85.8 357.3086 85.90938Q357.79297 86.12813 358.10547 86.44063Q358.41797 86.75313 358.57422 87.19063Q358.7461 87.6125 358.7461 88.1125Q358.7461 89.20625 358.04297 89.94063Q357.35547 90.675 356.2461 90.72188L356.2461 91.78438L355.6211 91.78438ZM355.6211 82.55Q355.01172 82.64375 354.65234 83.05Q354.3086 83.44063 354.3086 83.9875Q354.3086 84.51875 354.60547 84.89375Q354.90234 85.25313 355.6211 85.47188L355.6211 82.55ZM356.2461 89.84688Q356.85547 89.76875 357.26172 89.31563Q357.66797 88.84688 357.66797 88.175Q357.66797 87.59688 357.3711 87.25313Q357.08984 86.90938 356.2461 86.62813L356.2461 89.84688ZM362.19922 92.94063L359.8711 92.94063L359.8711 92.06563L361.13672 92.06563L361.13672 82.83125L359.8711 82.83125L359.8711 81.95625L362.19922 81.95625L362.19922 92.94063Z" fill-rule="nonzero"/><path fill="#b7b7b7" d="M378.63672 81.55C378.63672 80.99772 379.08444 80.55 379.63672 80.55L389.63672 80.55C390.189 80.55 390.63672 80.99772 390.63672 81.55L390.63672 91.55C390.63672 92.10229 390.189 92.55 389.63672 92.55L379.63672 92.55C379.08444 92.55 378.63672 92.10229 378.63672 91.55Z" fill-rule="nonzero"/><path fill="#1a1a1a" d="M399.5586 90.55L399.5586 81.95625L402.52734 81.95625Q403.52734 81.95625 404.0586 82.08125Q404.79297 82.25313 405.3086 82.69063Q405.9961 83.26875 406.32422 84.175Q406.66797 85.06563 406.66797 86.20625Q406.66797 87.19063 406.4336 87.94063Q406.21484 88.69063 405.85547 89.19063Q405.4961 89.69063 405.0586 89.97188Q404.63672 90.25313 404.04297 90.40938Q403.44922 90.55 402.66797 90.55L399.5586 90.55ZM400.69922 89.53438L402.52734 89.53438Q403.38672 89.53438 403.8711 89.37813Q404.35547 89.22188 404.63672 88.925Q405.04297 88.53438 405.26172 87.84688Q405.4961 87.15938 405.4961 86.19063Q405.4961 84.84688 405.04297 84.12813Q404.60547 83.39375 403.98047 83.14375Q403.51172 82.97188 402.51172 82.97188L400.69922 82.97188L400.69922 89.53438ZM412.51172 90.55L412.51172 89.62813Q411.77734 90.69063 410.52734 90.69063Q409.98047 90.69063 409.4961 90.4875Q409.02734 90.26875 408.79297 89.95625Q408.5586 89.62813 408.46484 89.15938Q408.40234 88.8625 408.40234 88.175L408.40234 84.33125L409.46484 84.33125L409.46484 87.78438Q409.46484 88.59688 409.52734 88.89375Q409.6211 89.3 409.9336 89.55Q410.26172 89.78438 410.7461 89.78438Q411.21484 89.78438 411.6211 89.55Q412.04297 89.3 412.21484 88.87813Q412.40234 88.45625 412.40234 87.65938L412.40234 84.33125L413.44922 84.33125L413.44922 90.55L412.51172 90.55ZM415.41797 90.55L415.41797 84.33125L416.3711 84.33125L416.3711 85.26875Q416.73047 84.6125 417.02734 84.40938Q417.33984 84.19063 417.71484 84.19063Q418.2461 84.19063 418.79297 84.51875L418.4336 85.50313Q418.04297 85.26875 417.66797 85.26875Q417.3086 85.26875 417.02734 85.4875Q416.76172 85.69063 416.65234 86.06563Q416.46484 86.62813 416.46484 87.28438L416.46484 90.55L415.41797 90.55ZM423.4961 89.78438Q422.90234 90.28438 422.35547 90.4875Q421.82422 90.69063 421.19922 90.69063Q420.16797 90.69063 419.6211 90.19063Q419.07422 89.69063 419.07422 88.90938Q419.07422 88.45625 419.27734 88.08125Q419.48047 87.69063 419.82422 87.47188Q420.16797 87.2375 420.58984 87.12813Q420.88672 87.03438 421.52734 86.95625Q422.79297 86.81563 423.40234 86.59688Q423.40234 86.37813 423.40234 86.33125Q423.40234 85.675 423.10547 85.40938Q422.69922 85.06563 421.90234 85.06563Q421.16797 85.06563 420.8086 85.33125Q420.44922 85.58125 420.27734 86.2375L419.2461 86.09688Q419.38672 85.44063 419.71484 85.03438Q420.04297 84.62813 420.65234 84.40938Q421.26172 84.19063 422.0586 84.19063Q422.85547 84.19063 423.35547 84.37813Q423.85547 84.56563 424.08984 84.84688Q424.32422 85.12813 424.41797 85.56563Q424.46484 85.83125 424.46484 86.53438L424.46484 87.94063Q424.46484 89.40938 424.52734 89.8Q424.60547 90.19063 424.8086 90.55L423.69922 90.55Q423.54297 90.22188 423.4961 89.78438ZM423.40234 87.425Q422.82422 87.65938 421.6836 87.83125Q421.02734 87.925 420.76172 88.05Q420.4961 88.15938 420.33984 88.37813Q420.19922 88.59688 420.19922 88.87813Q420.19922 89.3 420.51172 89.58125Q420.83984 89.8625 421.44922 89.8625Q422.0586 89.8625 422.52734 89.59688Q423.01172 89.33125 423.23047 88.8625Q423.40234 88.50313 423.40234 87.81563L423.40234 87.425ZM428.73047 89.6125L428.88672 90.53438Q428.4336 90.62813 428.08984 90.62813Q427.51172 90.62813 427.19922 90.45625Q426.88672 90.26875 426.7461 89.97188Q426.6211 89.675 426.6211 88.72188L426.6211 85.14375L425.85547 85.14375L425.85547 84.33125L426.6211 84.33125L426.6211 82.78438L427.66797 82.15938L427.66797 84.33125L428.73047 84.33125L428.73047 85.14375L427.66797 85.14375L427.66797 88.78438Q427.66797 89.2375 427.71484 89.3625Q427.77734 89.4875 427.90234 89.56563Q428.02734 89.64375 428.26172 89.64375Q428.44922 89.64375 428.73047 89.6125ZM429.4336 83.175L429.4336 81.95625L430.4961 81.95625L430.4961 83.175L429.4336 83.175ZM429.4336 90.55L429.4336 84.33125L430.4961 84.33125L430.4961 90.55L429.4336 90.55ZM432.04297 87.44063Q432.04297 85.70625 432.9961 84.87813Q433.79297 84.19063 434.94922 84.19063Q436.23047 84.19063 437.04297 85.03438Q437.8711 85.8625 437.8711 87.34688Q437.8711 88.55 437.51172 89.2375Q437.15234 89.925 436.44922 90.31563Q435.76172 90.69063 434.94922 90.69063Q433.65234 90.69063 432.83984 89.8625Q432.04297 89.01875 432.04297 87.44063ZM433.1211 87.44063Q433.1211 88.62813 433.63672 89.22188Q434.16797 89.81563 434.94922 89.81563Q435.7461 89.81563 436.26172 89.22188Q436.77734 88.62813 436.77734 87.40938Q436.77734 86.25313 436.2461 85.65938Q435.73047 85.06563 434.94922 85.06563Q434.16797 85.06563 433.63672 85.65938Q433.1211 86.2375 433.1211 87.44063ZM439.4336 90.55L439.4336 84.33125L440.3711 84.33125L440.3711 85.20625Q441.0586 84.19063 442.35547 84.19063Q442.91797 84.19063 443.38672 84.39375Q443.8711 84.59688 444.10547 84.925Q444.33984 85.25313 444.4336 85.69063Q444.48047 85.9875 444.48047 86.72188L444.48047 90.55L443.4336 90.55L443.4336 86.76875Q443.4336 86.1125 443.3086 85.8Q443.1836 85.4875 442.8711 85.3Q442.5586 85.09688 442.13672 85.09688Q441.46484 85.09688 440.96484 85.53438Q440.48047 85.95625 440.48047 87.14375L440.48047 90.55L439.4336 90.55ZM449.44922 92.94063L449.44922 81.95625L451.77734 81.95625L451.77734 82.83125L450.51172 82.83125L450.51172 92.06563L451.77734 92.06563L451.77734 92.94063L449.44922 92.94063ZM452.4336 90.55L452.4336 84.33125L453.3711 84.33125L453.3711 85.20625Q453.66797 84.7375 454.15234 84.47188Q454.63672 84.19063 455.26172 84.19063Q455.94922 84.19063 456.38672 84.47188Q456.83984 84.75313 457.01172 85.26875Q457.76172 84.19063 458.9336 84.19063Q459.8711 84.19063 460.35547 84.70625Q460.85547 85.20625 460.85547 86.28438L460.85547 90.55L459.8086 90.55L459.8086 86.62813Q459.8086 86.00313 459.69922 85.72188Q459.60547 85.44063 459.33984 85.26875Q459.07422 85.09688 458.69922 85.09688Q458.04297 85.09688 457.60547 85.53438Q457.1836 85.97188 457.1836 86.94063L457.1836 90.55L456.1211 90.55L456.1211 86.50313Q456.1211 85.8 455.85547 85.45625Q455.60547 85.09688 455.02734 85.09688Q454.57422 85.09688 454.19922 85.33125Q453.82422 85.56563 453.65234 86.01875Q453.48047 86.47188 453.48047 87.31563L453.48047 90.55L452.4336 90.55ZM463.4336 83.175L463.4336 81.95625L464.4961 81.95625L464.4961 83.175L463.4336 83.175ZM463.4336 90.55L463.4336 84.33125L464.4961 84.33125L464.4961 90.55L463.4336 90.55ZM466.4336 90.55L466.4336 84.33125L467.3711 84.33125L467.3711 85.20625Q468.0586 84.19063 469.35547 84.19063Q469.91797 84.19063 470.38672 84.39375Q470.8711 84.59688 471.10547 84.925Q471.33984 85.25313 471.4336 85.69063Q471.48047 85.9875 471.48047 86.72188L471.48047 90.55L470.4336 90.55L470.4336 86.76875Q470.4336 86.1125 470.3086 85.8Q470.1836 85.4875 469.8711 85.3Q469.5586 85.09688 469.13672 85.09688Q468.46484 85.09688 467.96484 85.53438Q467.48047 85.95625 467.48047 87.14375L467.48047 90.55L466.4336 90.55ZM477.51172 90.55L477.51172 89.62813Q476.77734 90.69063 475.52734 90.69063Q474.98047 90.69063 474.4961 90.4875Q474.02734 90.26875 473.79297 89.95625Q473.5586 89.62813 473.46484 89.15938Q473.40234 88.8625 473.40234 88.175L473.40234 84.33125L474.46484 84.33125L474.46484 87.78438Q474.46484 88.59688 474.52734 88.89375Q474.6211 89.3 474.9336 89.55Q475.26172 89.78438 475.7461 89.78438Q476.21484 89.78438 476.6211 89.55Q477.04297 89.3 477.21484 88.87813Q477.40234 88.45625 477.40234 87.65938L477.40234 84.33125L478.44922 84.33125L478.44922 90.55L477.51172 90.55ZM482.73047 89.6125L482.88672 90.53438Q482.4336 90.62813 482.08984 90.62813Q481.51172 90.62813 481.19922 90.45625Q480.88672 90.26875 480.7461 89.97188Q480.6211 89.675 480.6211 88.72188L480.6211 85.14375L479.85547 85.14375L479.85547 84.33125L480.6211 84.33125L480.6211 82.78438L481.66797 82.15938L481.66797 84.33125L482.73047 84.33125L482.73047 85.14375L481.66797 85.14375L481.66797 88.78438Q481.66797 89.2375 481.71484 89.3625Q481.77734 89.4875 481.90234 89.56563Q482.02734 89.64375 482.26172 89.64375Q482.44922 89.64375 482.73047 89.6125ZM487.6836 88.55L488.77734 88.675Q488.52734 89.62813 487.82422 90.15938Q487.1211 90.69063 486.04297 90.69063Q484.6836 90.69063 483.8711 89.84688Q483.07422 89.00313 483.07422 87.4875Q483.07422 85.925 483.88672 85.06563Q484.69922 84.19063 485.98047 84.19063Q487.23047 84.19063 488.01172 85.03438Q488.8086 85.87813 488.8086 87.425Q488.8086 87.51875 488.8086 87.70625L484.16797 87.70625Q484.23047 88.7375 484.7461 89.28438Q485.26172 89.81563 486.04297 89.81563Q486.6211 89.81563 487.02734 89.51875Q487.44922 89.20625 487.6836 88.55ZM484.23047 86.84688L487.69922 86.84688Q487.63672 86.05 487.3086 85.65938Q486.79297 85.05 485.9961 85.05Q485.26172 85.05 484.76172 85.53438Q484.27734 86.01875 484.23047 86.84688ZM490.01172 88.69063L491.04297 88.53438Q491.13672 89.15938 491.52734 89.4875Q491.9336 89.81563 492.66797 89.81563Q493.38672 89.81563 493.73047 89.53438Q494.08984 89.2375 494.08984 88.83125Q494.08984 88.47188 493.77734 88.26875Q493.5586 88.12813 492.69922 87.90938Q491.54297 87.6125 491.08984 87.40938Q490.65234 87.19063 490.41797 86.81563Q490.1836 86.44063 490.1836 85.97188Q490.1836 85.56563 490.3711 85.20625Q490.5586 84.84688 490.88672 84.6125Q491.13672 84.44063 491.5586 84.31563Q491.98047 84.19063 492.48047 84.19063Q493.19922 84.19063 493.7461 84.40938Q494.3086 84.6125 494.57422 84.97188Q494.83984 85.33125 494.9336 85.925L493.90234 86.06563Q493.83984 85.59688 493.4961 85.33125Q493.16797 85.05 492.54297 85.05Q491.82422 85.05 491.51172 85.3Q491.19922 85.53438 491.19922 85.8625Q491.19922 86.06563 491.32422 86.22188Q491.46484 86.39375 491.73047 86.50313Q491.88672 86.56563 492.66797 86.76875Q493.79297 87.08125 494.23047 87.26875Q494.66797 87.45625 494.91797 87.81563Q495.16797 88.175 495.16797 88.72188Q495.16797 89.25313 494.85547 89.72188Q494.5586 90.175 493.98047 90.44063Q493.40234 90.69063 492.66797 90.69063Q491.44922 90.69063 490.8086 90.19063Q490.1836 89.675 490.01172 88.69063ZM499.19922 92.94063L496.8711 92.94063L496.8711 92.06563L498.13672 92.06563L498.13672 82.83125L496.8711 82.83125L496.8711 81.95625L499.19922 81.95625L499.19922 92.94063Z" fill-rule="nonzero"/></svg>